<?xml version="1.0" standalone="no"?>
<!DOCTYPE svg PUBLIC "-//W3C//DTD SVG 20010904//EN"
 "http://www.w3.org/TR/2001/REC-SVG-20010904/DTD/svg10.dtd">
<svg version="1.0" xmlns="http://www.w3.org/2000/svg"
  viewBox="0 0 100.000000 100.000000"
 preserveAspectRatio="xMidYMid meet">
<metadata>
Created by potrace 1.10, written by Peter Selinger 2001-2011
</metadata>
<g transform="translate(0.000000,100.000000) scale(0.050000,-0.050000)"
fill="#0055aa" stroke="none">
<path d="M40 1960 c-63 -63 -63 -1857 0 -1920 38 -38 67 -40 540 -40 l500 0 0
390 0 390 -140 0 -140 0 0 140 0 140 140 0 140 0 0 185 c1 348 103 461 423
472 l197 7 0 -150 0 -149 -140 -8 c-175 -10 -188 -24 -197 -208 l-7 -149 164
0 164 0 -14 -105 c-23 -182 -16 -175 -171 -175 l-139 0 0 -390 0 -390 280 0
c402 0 360 -115 360 1000 0 893 -1 921 -40 960 -63 63 -1857 63 -1920 0z"/>
</g>
</svg>
