<svg id="svg" version="1.1" width="500" height="500" xmlns="http://www.w3.org/2000/svg" xmlns:xlink="http://www.w3.org/1999/xlink" style="display: block;"><g id="svgg"><path id="path0" d="M280.442 77.468 C 278.564 83.385,271.847 86.410,255.062 88.896 C 249.106 89.778,248.849 89.909,246.412 93.303 C 245.031 95.226,243.572 96.800,243.171 96.800 C 242.769 96.800,241.905 97.836,241.250 99.103 C 240.410 100.728,239.032 101.709,236.567 102.437 C 234.162 103.147,232.657 104.197,231.731 105.811 C 230.991 107.099,229.730 108.325,228.928 108.535 C 227.778 108.835,227.261 110.300,226.486 115.458 C 224.130 131.123,221.121 138.240,215.876 140.558 L 213.752 141.496 213.412 166.948 C 212.935 202.653,216.018 199.363,182.600 199.832 L 158.400 200.171 158.400 221.200 L 158.400 242.229 182.600 242.568 C 200.169 242.815,207.379 243.191,208.912 243.942 C 213.350 246.116,213.181 243.095,213.434 324.600 L 213.669 400.000 234.800 400.000 L 255.931 400.000 256.166 324.600 C 256.422 242.160,256.197 245.825,261.110 243.909 C 262.784 243.256,271.467 242.823,287.600 242.589 C 314.789 242.193,312.770 242.829,312.788 234.658 C 312.808 225.093,315.094 211.241,316.662 211.178 C 316.958 211.167,318.060 209.761,319.112 208.056 C 320.163 206.350,321.873 204.568,322.912 204.095 C 323.951 203.621,324.800 202.537,324.800 201.683 C 324.800 200.180,323.838 200.122,294.200 199.815 C 260.502 199.466,259.179 199.290,257.583 194.942 C 255.329 188.805,256.082 133.951,258.518 126.843 C 260.868 119.986,269.867 118.544,311.000 118.436 L 324.800 118.400 324.788 101.400 C 324.774 82.495,324.974 83.338,320.000 81.232 C 318.020 80.393,315.480 78.873,314.356 77.854 C 311.496 75.259,281.252 74.915,280.442 77.468 " stroke="none" fill="#ffffff" fill-rule="evenodd"></path><path id="path1" d="M7.966 3.600 L 7.600 7.600 3.600 8.074 L -0.400 8.549 3.825 8.674 C 8.653 8.818,9.046 8.361,8.616 3.092 L 8.332 -0.400 7.966 3.600 M392.324 4.000 L 392.400 8.400 396.000 8.465 L 399.600 8.531 396.240 8.223 L 392.881 7.916 392.564 3.758 L 392.247 -0.400 392.324 4.000 M3.758 392.564 L 7.916 392.881 8.223 396.240 L 8.531 399.600 8.465 396.000 L 8.400 392.400 4.000 392.324 L -0.400 392.247 3.758 392.564 M392.322 393.116 C 392.086 393.730,392.037 395.620,392.212 397.316 C 392.519 400.280,392.536 400.254,392.666 396.644 L 392.800 392.888 396.600 392.588 L 400.400 392.288 396.575 392.144 C 393.936 392.045,392.617 392.346,392.322 393.116 " stroke="none" fill="#154095" fill-rule="evenodd"></path><path id="path2" d="M8.642 4.200 L 8.400 8.400 4.200 8.642 L 0.000 8.884 -0.000 200.400 L -0.000 391.916 4.200 392.158 L 8.400 392.400 8.644 396.200 L 8.888 400.000 105.248 400.000 L 201.608 400.000 201.404 327.400 L 201.200 254.800 177.600 254.361 C 143.748 253.731,146.151 256.464,146.556 219.067 C 146.916 185.751,144.001 188.664,177.600 188.039 L 201.200 187.600 201.687 153.600 C 202.280 112.156,202.934 108.552,210.200 106.688 C 211.190 106.434,212.000 105.906,212.000 105.513 C 212.000 105.121,212.493 104.800,213.096 104.800 C 213.797 104.800,214.532 103.071,215.136 100.000 C 215.656 97.360,216.422 95.200,216.840 95.200 C 217.258 95.200,217.600 94.703,217.600 94.096 C 217.600 93.488,220.681 89.896,224.446 86.114 C 231.368 79.161,232.797 78.352,240.177 77.200 C 242.807 76.790,243.265 76.369,244.096 73.596 C 246.651 65.066,250.011 64.448,294.000 64.421 C 340.881 64.393,336.288 61.066,336.653 95.318 C 337.042 131.807,338.187 130.344,309.200 130.387 C 299.960 130.400,290.044 130.634,287.166 130.906 L 281.931 131.400 280.976 135.500 C 279.916 140.047,276.720 143.636,273.006 144.450 C 271.793 144.716,270.387 145.058,269.882 145.210 C 268.661 145.578,267.824 160.249,268.147 175.600 L 268.400 187.600 299.200 188.000 C 340.493 188.536,336.507 185.351,336.171 217.543 C 335.778 255.265,337.685 253.538,295.600 254.304 L 268.400 254.800 268.196 327.400 L 267.992 400.000 329.952 400.000 L 391.912 400.000 392.156 396.200 L 392.400 392.400 396.200 392.156 L 400.000 391.912 400.000 200.400 L 400.000 8.888 396.200 8.644 L 392.400 8.400 392.158 4.200 L 391.916 0.000 200.400 -0.000 L 8.884 -0.000 8.642 4.200 M394.611 7.774 C 395.827 7.958,397.627 7.953,398.611 7.763 C 399.595 7.573,398.600 7.423,396.400 7.429 C 394.200 7.435,393.395 7.590,394.611 7.774 " stroke="none" fill="#3b579d" fill-rule="evenodd"></path><path id="path3" d="M7.334 3.356 L 7.200 7.112 3.400 7.412 L -0.400 7.712 3.425 7.856 C 7.771 8.020,8.277 7.419,7.788 2.684 C 7.481 -0.280,7.464 -0.254,7.334 3.356 M7.429 396.400 C 7.435 398.600,7.590 399.405,7.774 398.189 C 7.958 396.973,7.953 395.173,7.763 394.189 C 7.573 393.205,7.423 394.200,7.429 396.400 " stroke="none" fill="#0024b6" fill-rule="evenodd"></path><path id="path4" d="M261.182 64.772 C 249.853 65.803,245.804 67.894,244.096 73.596 C 243.265 76.369,242.807 76.790,240.177 77.200 C 232.797 78.352,231.368 79.161,224.446 86.114 C 220.681 89.896,217.600 93.488,217.600 94.096 C 217.600 94.703,217.258 95.200,216.840 95.200 C 216.422 95.200,215.656 97.360,215.136 100.000 C 214.532 103.071,213.797 104.800,213.096 104.800 C 212.493 104.800,212.000 105.121,212.000 105.513 C 212.000 105.906,211.190 106.434,210.200 106.688 C 202.934 108.552,202.280 112.156,201.687 153.600 L 201.200 187.600 177.600 188.039 C 144.001 188.664,146.916 185.751,146.556 219.067 C 146.151 256.464,143.748 253.731,177.600 254.361 L 201.200 254.800 201.404 327.400 C 201.584 391.195,201.753 400.000,202.804 400.000 C 203.856 400.000,204.000 391.324,204.000 327.739 L 204.000 255.479 202.188 253.777 C 200.444 252.138,199.549 252.065,178.322 251.837 L 156.267 251.600 153.334 248.488 C 151.720 246.777,150.400 244.887,150.400 244.288 C 150.400 243.690,150.040 243.200,149.600 243.200 C 149.086 243.200,148.800 235.333,148.800 221.200 C 148.800 209.100,149.075 199.200,149.411 199.200 C 149.747 199.200,150.624 197.812,151.359 196.116 C 153.704 190.702,155.184 190.400,179.381 190.400 C 206.989 190.400,203.761 194.707,204.140 157.359 C 204.321 139.487,204.745 127.698,205.219 127.359 C 205.649 127.052,206.635 124.312,207.412 121.270 C 208.500 117.011,209.602 114.869,212.212 111.946 C 217.116 106.455,217.274 106.219,218.386 102.755 C 220.092 97.436,224.615 92.075,227.437 92.025 C 228.228 92.011,229.488 90.845,230.237 89.433 C 232.081 85.960,237.232 80.800,238.854 80.800 C 241.260 80.800,250.248 76.012,252.202 73.690 C 256.799 68.226,262.579 67.225,292.800 66.658 C 335.530 65.857,333.851 64.631,334.262 96.938 C 334.662 128.299,336.073 126.693,307.800 127.051 C 296.205 127.198,288.000 127.612,288.000 128.051 C 288.000 128.463,286.650 128.813,285.000 128.828 C 281.058 128.866,278.596 130.314,276.042 134.099 C 274.891 135.805,273.206 137.532,272.296 137.937 C 266.916 140.337,265.728 146.290,265.649 171.261 C 265.582 192.579,262.017 190.400,296.954 190.400 C 338.087 190.400,337.141 189.218,331.859 234.000 C 330.764 243.287,325.519 249.600,318.899 249.600 C 318.258 249.600,317.584 250.050,317.401 250.600 C 317.147 251.363,311.387 251.660,293.134 251.853 C 270.074 252.097,269.134 252.168,267.400 253.793 L 265.600 255.479 265.600 327.739 C 265.600 391.324,265.744 400.000,266.796 400.000 C 267.847 400.000,268.016 391.195,268.196 327.400 L 268.400 254.800 295.600 254.304 C 337.685 253.538,335.778 255.265,336.171 217.543 C 336.507 185.351,340.493 188.536,299.200 188.000 L 268.400 187.600 268.147 175.600 C 267.824 160.249,268.661 145.578,269.882 145.210 C 270.387 145.058,271.793 144.716,273.006 144.450 C 276.720 143.636,279.916 140.047,280.976 135.500 L 281.931 131.400 287.166 130.906 C 290.044 130.634,299.960 130.400,309.200 130.387 C 338.187 130.344,337.042 131.807,336.653 95.318 C 336.375 69.281,336.140 67.902,331.593 65.607 C 328.933 64.265,273.916 63.613,261.182 64.772 " stroke="none" fill="#5f76af" fill-rule="evenodd"></path><path id="path5" d="M271.600 67.228 C 259.901 68.322,255.479 69.795,252.202 73.690 C 250.248 76.012,241.260 80.800,238.854 80.800 C 237.232 80.800,232.081 85.960,230.237 89.433 C 229.488 90.845,228.228 92.011,227.437 92.025 C 224.615 92.075,220.092 97.436,218.386 102.755 C 217.274 106.219,217.116 106.455,212.212 111.946 C 209.602 114.869,208.500 117.011,207.412 121.270 C 206.635 124.312,205.649 127.052,205.219 127.359 C 204.745 127.698,204.321 139.487,204.140 157.359 C 203.761 194.707,206.989 190.400,179.381 190.400 C 155.184 190.400,153.704 190.702,151.359 196.116 C 150.624 197.812,149.747 199.200,149.411 199.200 C 149.075 199.200,148.800 209.100,148.800 221.200 C 148.800 235.333,149.086 243.200,149.600 243.200 C 150.040 243.200,150.400 243.690,150.400 244.288 C 150.400 244.887,151.720 246.777,153.334 248.488 L 156.267 251.600 178.322 251.837 C 199.549 252.065,200.444 252.138,202.188 253.777 L 204.000 255.479 204.000 327.739 C 204.000 399.467,204.012 400.000,205.600 400.000 C 207.188 400.000,207.200 399.467,207.200 327.979 L 207.200 255.958 203.621 252.379 L 200.042 248.800 178.741 248.800 L 157.440 248.800 154.720 246.080 L 152.000 243.360 152.000 221.341 L 152.000 199.323 154.187 196.661 C 155.390 195.198,156.740 193.736,157.187 193.412 C 157.634 193.089,167.540 192.814,179.200 192.801 L 200.400 192.777 203.800 189.710 L 207.200 186.643 207.228 161.522 C 207.264 128.864,208.701 120.750,215.829 112.934 C 217.166 111.468,218.680 109.128,219.192 107.734 C 221.437 101.629,223.257 98.443,225.283 97.071 C 226.479 96.262,229.829 93.170,232.729 90.200 C 235.628 87.230,238.433 84.800,238.961 84.800 C 239.489 84.800,240.208 84.327,240.560 83.749 C 240.912 83.170,243.360 81.842,246.000 80.796 C 248.640 79.751,252.585 77.680,254.768 76.194 C 256.950 74.709,259.740 73.292,260.968 73.046 C 262.195 72.801,263.200 72.329,263.200 71.997 C 263.200 70.125,271.404 69.388,296.288 69.022 C 334.069 68.467,332.000 66.781,332.000 98.131 C 332.000 126.477,334.209 124.362,303.836 125.090 C 283.797 125.570,278.400 126.203,278.400 128.075 C 278.400 128.414,277.767 128.893,276.994 129.138 C 274.250 130.009,268.009 136.884,266.025 141.220 C 264.095 145.440,263.991 146.465,263.502 166.210 L 262.992 186.800 266.029 189.800 L 269.067 192.800 297.332 192.800 L 325.598 192.800 328.918 196.022 L 332.238 199.243 331.711 207.422 C 331.032 217.974,328.724 234.400,327.921 234.400 C 327.578 234.400,327.055 236.018,326.759 237.996 C 325.411 246.986,319.365 248.800,290.755 248.800 L 269.357 248.800 266.290 252.200 L 263.223 255.600 263.211 327.800 C 263.201 391.449,263.342 400.000,264.400 400.000 C 265.458 400.000,265.600 391.438,265.600 327.739 L 265.600 255.479 267.400 253.793 C 269.134 252.168,270.074 252.097,293.134 251.853 C 311.387 251.660,317.147 251.363,317.401 250.600 C 317.584 250.050,318.258 249.600,318.899 249.600 C 325.519 249.600,330.764 243.287,331.859 234.000 C 337.143 189.201,338.106 190.400,296.842 190.400 L 269.079 190.400 267.339 188.548 C 265.673 186.774,265.602 186.046,265.649 171.148 C 265.729 146.297,266.922 140.334,272.296 137.937 C 273.206 137.532,274.891 135.805,276.042 134.099 C 278.596 130.314,281.058 128.866,285.000 128.828 C 286.650 128.813,288.000 128.463,288.000 128.051 C 288.000 127.612,296.205 127.198,307.800 127.051 C 336.073 126.693,334.662 128.299,334.262 96.938 C 333.858 65.187,335.195 66.321,298.400 66.520 C 287.180 66.580,275.120 66.899,271.600 67.228 " stroke="none" fill="#8496c1" fill-rule="evenodd"></path><path id="path6" d="M274.000 69.316 C 269.163 69.874,263.200 71.332,263.200 71.957 C 263.200 72.311,262.195 72.801,260.968 73.046 C 259.740 73.292,256.950 74.709,254.768 76.194 C 252.585 77.680,248.640 79.751,246.000 80.796 C 243.360 81.842,240.912 83.170,240.560 83.749 C 240.208 84.327,239.489 84.800,238.961 84.800 C 238.433 84.800,235.628 87.230,232.729 90.200 C 229.829 93.170,226.479 96.262,225.283 97.071 C 223.257 98.443,221.437 101.629,219.192 107.734 C 218.680 109.128,217.166 111.468,215.829 112.934 C 208.701 120.750,207.264 128.864,207.228 161.522 L 207.200 186.643 203.800 189.710 L 200.400 192.777 179.200 192.801 C 167.540 192.814,157.634 193.089,157.187 193.412 C 156.740 193.736,155.390 195.198,154.187 196.661 L 152.000 199.323 152.000 221.341 L 152.000 243.360 154.720 246.080 L 157.440 248.800 178.741 248.800 L 200.042 248.800 203.621 252.379 L 207.200 255.958 207.200 327.979 C 207.200 375.460,207.473 400.000,208.000 400.000 C 208.527 400.000,208.800 375.321,208.800 327.562 L 208.800 255.124 204.838 251.162 L 200.876 247.200 179.482 247.200 L 158.088 247.200 155.844 245.050 L 153.600 242.901 153.600 221.200 L 153.600 199.499 155.844 197.350 L 158.088 195.200 179.051 195.200 L 200.014 195.200 202.568 193.000 C 209.465 187.060,208.800 190.185,208.800 163.694 C 208.800 135.300,209.407 129.690,213.333 121.800 C 214.920 118.610,216.464 116.000,216.762 116.000 C 217.654 116.000,220.585 110.250,221.560 106.589 C 222.526 102.959,226.346 97.979,228.748 97.216 C 229.546 96.963,231.869 94.630,233.911 92.031 C 237.347 87.658,241.202 84.800,243.666 84.800 C 244.227 84.800,245.161 84.326,245.743 83.746 C 246.324 83.167,248.016 82.269,249.501 81.752 C 250.987 81.236,253.867 79.802,255.901 78.566 C 260.248 75.926,267.393 72.800,269.082 72.800 C 269.733 72.800,270.417 72.350,270.600 71.800 C 271.306 69.680,323.245 70.436,325.569 72.600 C 326.632 73.590,327.777 74.400,328.113 74.400 C 329.717 74.400,330.391 81.881,330.396 99.705 L 330.400 119.010 327.800 120.980 C 325.230 122.927,324.949 122.956,303.381 123.472 C 277.220 124.099,277.990 123.902,269.576 132.121 C 263.162 138.386,262.454 141.499,261.857 166.063 L 261.346 187.101 265.273 191.138 L 269.200 195.175 297.053 195.188 L 324.907 195.200 327.653 197.295 C 329.876 198.991,330.400 199.933,330.400 202.241 C 330.400 206.480,328.647 219.539,328.015 220.000 C 327.714 220.220,327.055 222.947,326.549 226.060 C 325.670 231.481,323.687 239.063,322.485 241.600 C 322.173 242.260,319.956 243.778,317.558 244.974 L 313.200 247.149 291.153 247.174 C 267.070 247.202,268.219 246.985,264.040 252.310 L 261.600 255.420 261.600 327.710 C 261.600 375.370,261.873 400.000,262.400 400.000 C 262.927 400.000,263.204 375.392,263.211 327.800 L 263.223 255.600 266.290 252.200 L 269.357 248.800 290.755 248.800 C 319.365 248.800,325.411 246.986,326.759 237.996 C 327.055 236.018,327.578 234.400,327.921 234.400 C 328.724 234.400,331.032 217.974,331.711 207.422 L 332.238 199.243 328.918 196.022 L 325.598 192.800 297.332 192.800 L 269.067 192.800 266.029 189.800 L 262.992 186.800 263.502 166.210 C 263.991 146.465,264.095 145.440,266.025 141.220 C 268.009 136.884,274.250 130.009,276.994 129.138 C 277.767 128.893,278.400 128.414,278.400 128.075 C 278.400 126.203,283.797 125.570,303.836 125.090 C 334.209 124.362,332.000 126.477,332.000 98.131 C 332.000 67.214,333.690 68.746,299.773 68.920 C 286.918 68.986,275.320 69.164,274.000 69.316 " stroke="none" fill="#9dabce" fill-rule="evenodd"></path><path id="path7" d="M274.600 70.954 C 272.290 71.135,270.400 71.625,270.400 72.042 C 270.400 72.459,269.837 72.800,269.148 72.800 C 267.401 72.800,260.317 75.883,255.901 78.566 C 253.867 79.802,250.987 81.236,249.501 81.752 C 248.016 82.269,246.324 83.167,245.743 83.746 C 245.161 84.326,244.227 84.800,243.666 84.800 C 241.202 84.800,237.347 87.658,233.911 92.031 C 231.869 94.630,229.546 96.963,228.748 97.216 C 226.346 97.979,222.526 102.959,221.560 106.589 C 220.585 110.250,217.654 116.000,216.762 116.000 C 216.464 116.000,214.920 118.610,213.333 121.800 C 209.407 129.690,208.800 135.300,208.800 163.694 C 208.800 190.185,209.465 187.060,202.568 193.000 L 200.014 195.200 178.957 195.200 L 157.899 195.200 155.750 197.444 L 153.600 199.688 153.600 221.294 L 153.600 242.901 155.844 245.050 L 158.088 247.200 179.482 247.200 L 200.876 247.200 204.838 251.162 L 208.800 255.124 208.800 327.562 C 208.800 375.321,209.073 400.000,209.600 400.000 C 211.089 400.000,210.659 254.022,209.161 251.125 C 206.428 245.839,205.230 245.606,180.739 245.603 C 152.210 245.599,155.200 248.469,155.200 221.088 C 155.200 193.976,152.245 196.800,180.614 196.800 C 210.622 196.800,210.386 196.961,210.424 176.471 C 210.485 142.906,212.209 128.342,216.508 125.064 C 219.203 123.008,223.315 113.882,224.444 107.452 C 225.175 103.289,226.693 101.101,229.305 100.445 C 232.734 99.585,235.924 96.930,237.201 93.875 C 238.608 90.508,241.162 88.264,244.400 87.550 C 249.011 86.533,256.800 83.770,256.800 83.151 C 256.800 82.808,257.920 82.281,259.290 81.980 C 260.659 81.679,263.190 80.159,264.914 78.602 C 269.961 74.042,292.010 72.154,317.632 74.088 C 326.188 74.734,326.190 74.737,326.883 83.044 C 327.184 86.650,327.738 89.600,328.115 89.600 C 328.492 89.600,328.800 95.917,328.800 103.638 L 328.800 117.677 326.600 119.613 L 324.400 121.549 302.345 121.575 C 271.640 121.610,266.612 123.411,262.080 136.000 C 261.684 137.100,260.964 138.257,260.480 138.570 C 259.880 138.959,259.520 147.111,259.350 164.202 L 259.099 189.264 262.647 192.914 L 266.194 196.564 295.173 196.980 C 330.943 197.494,328.047 196.233,326.030 210.419 C 325.210 216.187,324.041 221.202,323.171 222.688 C 321.424 225.670,318.400 236.244,318.400 239.370 C 318.400 244.594,313.543 245.600,288.314 245.600 L 266.174 245.600 262.687 249.188 L 259.200 252.776 259.200 326.388 C 259.200 391.288,259.342 400.000,260.400 400.000 C 261.458 400.000,261.600 391.434,261.600 327.710 L 261.600 255.420 264.040 252.310 C 268.219 246.985,267.070 247.202,291.153 247.174 L 313.200 247.149 317.558 244.974 C 319.956 243.778,322.173 242.260,322.485 241.600 C 323.687 239.063,325.670 231.481,326.549 226.060 C 327.055 222.947,327.714 220.220,328.015 220.000 C 328.647 219.539,330.400 206.480,330.400 202.241 C 330.400 199.933,329.876 198.991,327.653 197.295 L 324.907 195.200 297.053 195.188 L 269.200 195.175 265.273 191.138 L 261.346 187.101 261.857 166.063 C 262.454 141.499,263.162 138.386,269.576 132.121 C 277.990 123.902,277.220 124.099,303.381 123.472 C 324.949 122.956,325.230 122.927,327.800 120.980 L 330.400 119.010 330.396 99.705 C 330.391 81.881,329.717 74.400,328.113 74.400 C 327.777 74.400,326.633 73.590,325.570 72.600 C 323.655 70.815,290.153 69.733,274.600 70.954 " stroke="none" fill="#b5c0da" fill-rule="evenodd"></path><path id="path8" d="M286.800 73.727 C 271.894 74.482,268.684 75.196,264.925 78.592 C 263.195 80.155,260.659 81.679,259.290 81.980 C 257.920 82.281,256.800 82.808,256.800 83.151 C 256.800 83.770,249.011 86.533,244.400 87.550 C 241.162 88.264,238.608 90.508,237.201 93.875 C 235.924 96.930,232.734 99.585,229.305 100.445 C 226.693 101.101,225.175 103.289,224.444 107.452 C 223.315 113.882,219.203 123.008,216.508 125.064 C 212.209 128.342,210.485 142.906,210.424 176.471 C 210.386 196.972,210.639 196.800,180.502 196.800 C 152.251 196.800,155.200 193.943,155.200 221.312 C 155.200 248.436,152.205 245.599,180.852 245.603 C 201.209 245.606,202.986 245.719,205.361 247.168 C 210.685 250.414,210.400 245.913,210.400 326.760 C 210.400 399.979,210.400 400.000,212.034 400.000 L 213.669 400.000 213.434 324.600 C 213.181 243.095,213.350 246.116,208.912 243.942 C 207.379 243.191,200.169 242.815,182.600 242.568 L 158.400 242.229 158.400 221.200 L 158.400 200.171 182.600 199.832 C 216.018 199.363,212.935 202.653,213.412 166.948 L 213.752 141.496 215.876 140.558 C 221.121 138.240,224.130 131.123,226.486 115.458 C 227.261 110.300,227.778 108.835,228.928 108.535 C 229.730 108.325,230.991 107.099,231.731 105.811 C 232.657 104.197,234.162 103.147,236.567 102.437 C 239.032 101.709,240.410 100.728,241.250 99.103 C 241.905 97.836,242.769 96.800,243.171 96.800 C 243.572 96.800,245.031 95.226,246.412 93.303 C 248.849 89.909,249.106 89.778,255.062 88.896 C 271.847 86.410,278.564 83.385,280.442 77.468 C 281.252 74.915,311.496 75.259,314.356 77.854 C 315.480 78.873,318.020 80.393,320.000 81.232 C 324.974 83.338,324.774 82.495,324.788 101.400 L 324.800 118.400 311.000 118.436 C 269.867 118.544,260.868 119.986,258.518 126.843 C 256.082 133.951,255.329 188.805,257.583 194.942 C 259.179 199.290,260.502 199.466,294.200 199.815 C 323.838 200.122,324.800 200.180,324.800 201.683 C 324.800 202.537,323.951 203.621,322.912 204.095 C 321.873 204.568,320.163 206.350,319.112 208.056 C 318.060 209.761,316.958 211.167,316.662 211.178 C 315.094 211.241,312.808 225.093,312.788 234.658 C 312.770 242.829,314.789 242.193,287.600 242.589 C 271.467 242.823,262.784 243.256,261.110 243.909 C 256.197 245.825,256.422 242.160,256.166 324.600 L 255.931 400.000 257.566 400.000 C 259.200 400.000,259.200 399.982,259.200 326.388 L 259.200 252.776 262.687 249.188 L 266.174 245.600 288.314 245.600 C 313.543 245.600,318.400 244.594,318.400 239.370 C 318.400 236.244,321.424 225.670,323.171 222.688 C 324.041 221.202,325.210 216.187,326.030 210.419 C 328.047 196.233,330.943 197.494,295.173 196.980 L 266.194 196.564 262.647 192.914 L 259.099 189.264 259.350 164.202 C 259.520 147.111,259.880 138.959,260.480 138.570 C 260.964 138.257,261.684 137.100,262.080 136.000 C 266.612 123.411,271.640 121.610,302.345 121.575 L 324.400 121.549 326.600 119.613 L 328.800 117.677 328.800 103.638 C 328.800 95.917,328.492 89.600,328.115 89.600 C 327.738 89.600,327.183 86.630,326.882 83.000 C 326.580 79.370,325.887 75.951,325.341 75.403 C 324.008 74.064,300.411 73.037,286.800 73.727 " stroke="none" fill="#e6eaf2" fill-rule="evenodd"></path><path id="path9" d="M0.000 3.600 L 0.000 7.200 3.600 7.200 L 7.200 7.200 7.200 3.600 L 7.200 0.000 3.600 0.000 L 0.000 0.000 0.000 3.600 M0.000 396.400 L 0.000 400.000 3.600 400.000 L 7.200 400.000 7.200 396.400 L 7.200 392.800 3.600 392.800 L 0.000 392.800 0.000 396.400 " stroke="none" fill="#0000ff" fill-rule="evenodd"></path></g></svg>