<svg id="svg" version="1.1" width="500" height="500" xmlns="http://www.w3.org/2000/svg" xmlns:xlink="http://www.w3.org/1999/xlink" style="display: block;"><g id="svgg"><path id="path0" d="M0.000 200.000 L 0.000 400.000 106.804 400.000 L 213.608 400.000 213.404 321.000 L 213.200 242.000 185.800 241.789 L 158.400 241.579 158.400 220.800 L 158.400 200.021 185.800 199.811 L 213.200 199.600 213.413 178.348 L 213.626 157.096 217.538 156.093 C 224.891 154.209,226.581 149.682,226.993 130.771 L 227.272 117.943 232.913 117.055 C 239.853 115.962,239.962 115.853,241.047 108.960 L 241.928 103.366 246.974 103.044 C 253.468 102.631,254.454 101.628,254.995 94.886 L 255.419 89.600 267.110 89.575 C 287.411 89.532,293.795 88.065,294.730 83.227 C 294.989 81.892,295.409 79.717,295.665 78.393 C 296.300 75.107,297.600 76.183,297.600 79.995 C 297.600 87.474,299.305 88.425,314.200 89.258 L 324.000 89.806 324.000 103.703 L 324.000 117.600 290.015 117.600 L 256.030 117.600 255.594 119.400 C 255.353 120.390,255.256 138.840,255.378 160.400 L 255.600 199.600 283.503 199.810 L 311.406 200.021 310.912 203.010 C 310.640 204.655,310.414 214.005,310.409 223.789 L 310.400 241.579 283.000 241.789 L 255.600 242.000 255.396 321.000 L 255.192 400.000 323.996 400.000 L 392.800 400.000 392.800 396.400 L 392.800 392.800 396.400 392.800 L 400.000 392.800 400.000 200.000 L 400.000 7.200 396.400 7.200 L 392.800 7.200 392.800 3.600 L 392.800 0.000 196.400 0.000 L 0.000 0.000 0.000 200.000 " stroke="none" fill="#ffffff" fill-rule="evenodd"></path><path id="path1" d="M0.000 200.000 L 0.000 400.000 106.804 400.000 L 213.608 400.000 213.404 321.000 L 213.200 242.000 185.800 241.789 L 158.400 241.579 158.400 220.800 L 158.400 200.021 185.800 199.811 L 213.200 199.600 213.413 178.348 L 213.626 157.096 217.538 156.093 C 224.891 154.209,226.581 149.682,226.993 130.771 L 227.272 117.943 232.913 117.055 C 239.853 115.962,239.962 115.853,241.047 108.960 L 241.928 103.366 246.974 103.044 C 253.468 102.631,254.454 101.628,254.995 94.886 L 255.419 89.600 267.110 89.575 C 287.411 89.532,293.795 88.065,294.730 83.227 C 294.989 81.892,295.409 79.717,295.665 78.393 C 296.300 75.107,297.600 76.183,297.600 79.995 C 297.600 87.474,299.305 88.425,314.200 89.258 L 324.000 89.806 324.000 103.703 L 324.000 117.600 290.015 117.600 L 256.030 117.600 255.594 119.400 C 255.353 120.390,255.256 138.840,255.378 160.400 L 255.600 199.600 283.503 199.810 L 311.406 200.021 310.912 203.010 C 310.640 204.655,310.414 214.005,310.409 223.789 L 310.400 241.579 283.000 241.789 L 255.600 242.000 255.396 321.000 L 255.192 400.000 323.996 400.000 L 392.800 400.000 392.800 396.400 L 392.800 392.800 396.400 392.800 L 400.000 392.800 400.000 200.000 L 400.000 7.200 396.400 7.200 L 392.800 7.200 392.800 3.600 L 392.800 0.000 196.400 0.000 L 0.000 0.000 0.000 200.000 " stroke="none" fill="#ffffff" fill-rule="evenodd"></path><path id="path2" d="M0.000 200.000 L 0.000 400.000 106.804 400.000 L 213.608 400.000 213.404 321.000 L 213.200 242.000 185.800 241.789 L 158.400 241.579 158.400 220.800 L 158.400 200.021 185.800 199.811 L 213.200 199.600 213.413 178.348 L 213.626 157.096 217.538 156.093 C 224.891 154.209,226.581 149.682,226.993 130.771 L 227.272 117.943 232.913 117.055 C 239.853 115.962,239.962 115.853,241.047 108.960 L 241.928 103.366 246.974 103.044 C 253.468 102.631,254.454 101.628,254.995 94.886 L 255.419 89.600 267.110 89.575 C 287.411 89.532,293.795 88.065,294.730 83.227 C 294.989 81.892,295.409 79.717,295.665 78.393 C 296.300 75.107,297.600 76.183,297.600 79.995 C 297.600 87.474,299.305 88.425,314.200 89.258 L 324.000 89.806 324.000 103.703 L 324.000 117.600 290.015 117.600 L 256.030 117.600 255.594 119.400 C 255.353 120.390,255.256 138.840,255.378 160.400 L 255.600 199.600 283.503 199.810 L 311.406 200.021 310.912 203.010 C 310.640 204.655,310.414 214.005,310.409 223.789 L 310.400 241.579 283.000 241.789 L 255.600 242.000 255.396 321.000 L 255.192 400.000 323.996 400.000 L 392.800 400.000 392.800 396.400 L 392.800 392.800 396.400 392.800 L 400.000 392.800 400.000 200.000 L 400.000 7.200 396.400 7.200 L 392.800 7.200 392.800 3.600 L 392.800 0.000 196.400 0.000 L 0.000 0.000 0.000 200.000 " stroke="none" fill="#ffffff" fill-rule="evenodd"></path><path id="path3" d="M0.000 200.000 L 0.000 400.000 106.804 400.000 L 213.608 400.000 213.404 321.000 L 213.200 242.000 185.800 241.789 L 158.400 241.579 158.400 220.800 L 158.400 200.021 185.800 199.811 L 213.200 199.600 213.413 178.348 L 213.626 157.096 217.538 156.093 C 224.891 154.209,226.581 149.682,226.993 130.771 L 227.272 117.943 232.913 117.055 C 239.853 115.962,239.962 115.853,241.047 108.960 L 241.928 103.366 246.974 103.044 C 253.468 102.631,254.454 101.628,254.995 94.886 L 255.419 89.600 267.110 89.575 C 287.411 89.532,293.795 88.065,294.730 83.227 C 294.989 81.892,295.409 79.717,295.665 78.393 C 296.300 75.107,297.600 76.183,297.600 79.995 C 297.600 87.474,299.305 88.425,314.200 89.258 L 324.000 89.806 324.000 103.703 L 324.000 117.600 290.015 117.600 L 256.030 117.600 255.594 119.400 C 255.353 120.390,255.256 138.840,255.378 160.400 L 255.600 199.600 283.503 199.810 L 311.406 200.021 310.912 203.010 C 310.640 204.655,310.414 214.005,310.409 223.789 L 310.400 241.579 283.000 241.789 L 255.600 242.000 255.396 321.000 L 255.192 400.000 323.996 400.000 L 392.800 400.000 392.800 396.400 L 392.800 392.800 396.400 392.800 L 400.000 392.800 400.000 200.000 L 400.000 7.200 396.400 7.200 L 392.800 7.200 392.800 3.600 L 392.800 0.000 196.400 0.000 L 0.000 0.000 0.000 200.000 " stroke="none" fill="#ffffff" fill-rule="evenodd"></path><path id="path4" d="M0.000 200.000 L 0.000 400.000 106.804 400.000 L 213.608 400.000 213.404 321.000 L 213.200 242.000 185.800 241.789 L 158.400 241.579 158.400 220.800 L 158.400 200.021 185.800 199.811 L 213.200 199.600 213.413 178.348 L 213.626 157.096 217.538 156.093 C 224.891 154.209,226.581 149.682,226.993 130.771 L 227.272 117.943 232.913 117.055 C 239.853 115.962,239.962 115.853,241.047 108.960 L 241.928 103.366 246.974 103.044 C 253.468 102.631,254.454 101.628,254.995 94.886 L 255.419 89.600 267.110 89.575 C 287.411 89.532,293.795 88.065,294.730 83.227 C 294.989 81.892,295.409 79.717,295.665 78.393 C 296.300 75.107,297.600 76.183,297.600 79.995 C 297.600 87.474,299.305 88.425,314.200 89.258 L 324.000 89.806 324.000 103.703 L 324.000 117.600 290.015 117.600 L 256.030 117.600 255.594 119.400 C 255.353 120.390,255.256 138.840,255.378 160.400 L 255.600 199.600 283.503 199.810 L 311.406 200.021 310.912 203.010 C 310.640 204.655,310.414 214.005,310.409 223.789 L 310.400 241.579 283.000 241.789 L 255.600 242.000 255.396 321.000 L 255.192 400.000 323.996 400.000 L 392.800 400.000 392.800 396.400 L 392.800 392.800 396.400 392.800 L 400.000 392.800 400.000 200.000 L 400.000 7.200 396.400 7.200 L 392.800 7.200 392.800 3.600 L 392.800 0.000 196.400 0.000 L 0.000 0.000 0.000 200.000 " stroke="none" fill="#ffffff" fill-rule="evenodd"></path><path id="path5" d="M0.000 200.000 L 0.000 400.000 106.804 400.000 L 213.608 400.000 213.404 321.000 L 213.200 242.000 185.800 241.789 L 158.400 241.579 158.400 220.800 L 158.400 200.021 185.800 199.811 L 213.200 199.600 213.413 178.348 L 213.626 157.096 217.538 156.093 C 224.891 154.209,226.581 149.682,226.993 130.771 L 227.272 117.943 232.913 117.055 C 239.853 115.962,239.962 115.853,241.047 108.960 L 241.928 103.366 246.974 103.044 C 253.468 102.631,254.454 101.628,254.995 94.886 L 255.419 89.600 267.110 89.575 C 287.411 89.532,293.795 88.065,294.730 83.227 C 294.989 81.892,295.409 79.717,295.665 78.393 C 296.300 75.107,297.600 76.183,297.600 79.995 C 297.600 87.474,299.305 88.425,314.200 89.258 L 324.000 89.806 324.000 103.703 L 324.000 117.600 290.015 117.600 L 256.030 117.600 255.594 119.400 C 255.353 120.390,255.256 138.840,255.378 160.400 L 255.600 199.600 283.503 199.810 L 311.406 200.021 310.912 203.010 C 310.640 204.655,310.414 214.005,310.409 223.789 L 310.400 241.579 283.000 241.789 L 255.600 242.000 255.396 321.000 L 255.192 400.000 323.996 400.000 L 392.800 400.000 392.800 396.400 L 392.800 392.800 396.400 392.800 L 400.000 392.800 400.000 200.000 L 400.000 7.200 396.400 7.200 L 392.800 7.200 392.800 3.600 L 392.800 0.000 196.400 0.000 L 0.000 0.000 0.000 200.000 " stroke="none" fill="#ffffff" fill-rule="evenodd"></path><path id="path6" d="M0.000 200.000 L 0.000 400.000 106.804 400.000 L 213.608 400.000 213.404 321.000 L 213.200 242.000 185.800 241.789 L 158.400 241.579 158.400 220.800 L 158.400 200.021 185.800 199.811 L 213.200 199.600 213.413 178.348 L 213.626 157.096 217.538 156.093 C 224.891 154.209,226.581 149.682,226.993 130.771 L 227.272 117.943 232.913 117.055 C 239.853 115.962,239.962 115.853,241.047 108.960 L 241.928 103.366 246.974 103.044 C 253.468 102.631,254.454 101.628,254.995 94.886 L 255.419 89.600 267.110 89.575 C 287.411 89.532,293.795 88.065,294.730 83.227 C 294.989 81.892,295.409 79.717,295.665 78.393 C 296.300 75.107,297.600 76.183,297.600 79.995 C 297.600 87.474,299.305 88.425,314.200 89.258 L 324.000 89.806 324.000 103.703 L 324.000 117.600 290.015 117.600 L 256.030 117.600 255.594 119.400 C 255.353 120.390,255.256 138.840,255.378 160.400 L 255.600 199.600 283.503 199.810 L 311.406 200.021 310.912 203.010 C 310.640 204.655,310.414 214.005,310.409 223.789 L 310.400 241.579 283.000 241.789 L 255.600 242.000 255.396 321.000 L 255.192 400.000 323.996 400.000 L 392.800 400.000 392.800 396.400 L 392.800 392.800 396.400 392.800 L 400.000 392.800 400.000 200.000 L 400.000 7.200 396.400 7.200 L 392.800 7.200 392.800 3.600 L 392.800 0.000 196.400 0.000 L 0.000 0.000 0.000 200.000 " stroke="none" fill="#ffffff" fill-rule="evenodd"></path><path id="path7" d="M0.000 200.000 L 0.000 400.000 106.804 400.000 L 213.608 400.000 213.404 321.000 L 213.200 242.000 185.800 241.789 L 158.400 241.579 158.400 220.800 L 158.400 200.021 185.800 199.811 L 213.200 199.600 213.413 178.348 L 213.626 157.096 217.538 156.093 C 224.891 154.209,226.581 149.682,226.993 130.771 L 227.272 117.943 232.913 117.055 C 239.853 115.962,239.962 115.853,241.047 108.960 L 241.928 103.366 246.974 103.044 C 253.468 102.631,254.454 101.628,254.995 94.886 L 255.419 89.600 267.110 89.575 C 287.411 89.532,293.795 88.065,294.730 83.227 C 294.989 81.892,295.409 79.717,295.665 78.393 C 296.300 75.107,297.600 76.183,297.600 79.995 C 297.600 87.474,299.305 88.425,314.200 89.258 L 324.000 89.806 324.000 103.703 L 324.000 117.600 290.015 117.600 L 256.030 117.600 255.594 119.400 C 255.353 120.390,255.256 138.840,255.378 160.400 L 255.600 199.600 283.503 199.810 L 311.406 200.021 310.912 203.010 C 310.640 204.655,310.414 214.005,310.409 223.789 L 310.400 241.579 283.000 241.789 L 255.600 242.000 255.396 321.000 L 255.192 400.000 323.996 400.000 L 392.800 400.000 392.800 396.400 L 392.800 392.800 396.400 392.800 L 400.000 392.800 400.000 200.000 L 400.000 7.200 396.400 7.200 L 392.800 7.200 392.800 3.600 L 392.800 0.000 196.400 0.000 L 0.000 0.000 0.000 200.000 " stroke="none" fill="#ffffff" fill-rule="evenodd"></path><path id="path8" d="M0.000 200.000 L 0.000 400.000 106.804 400.000 L 213.608 400.000 213.404 321.000 L 213.200 242.000 185.800 241.789 L 158.400 241.579 158.400 220.800 L 158.400 200.021 185.800 199.811 L 213.200 199.600 213.413 178.348 L 213.626 157.096 217.538 156.093 C 224.891 154.209,226.581 149.682,226.993 130.771 L 227.272 117.943 232.913 117.055 C 239.853 115.962,239.962 115.853,241.047 108.960 L 241.928 103.366 246.974 103.044 C 253.468 102.631,254.454 101.628,254.995 94.886 L 255.419 89.600 267.110 89.575 C 287.411 89.532,293.795 88.065,294.730 83.227 C 294.989 81.892,295.409 79.717,295.665 78.393 C 296.300 75.107,297.600 76.183,297.600 79.995 C 297.600 87.474,299.305 88.425,314.200 89.258 L 324.000 89.806 324.000 103.703 L 324.000 117.600 290.015 117.600 L 256.030 117.600 255.594 119.400 C 255.353 120.390,255.256 138.840,255.378 160.400 L 255.600 199.600 283.503 199.810 L 311.406 200.021 310.912 203.010 C 310.640 204.655,310.414 214.005,310.409 223.789 L 310.400 241.579 283.000 241.789 L 255.600 242.000 255.396 321.000 L 255.192 400.000 323.996 400.000 L 392.800 400.000 392.800 396.400 L 392.800 392.800 396.400 392.800 L 400.000 392.800 400.000 200.000 L 400.000 7.200 396.400 7.200 L 392.800 7.200 392.800 3.600 L 392.800 0.000 196.400 0.000 L 0.000 0.000 0.000 200.000 " stroke="none" fill="#ffffff" fill-rule="evenodd"></path><path id="path9" d="M0.000 200.000 L 0.000 400.000 106.804 400.000 L 213.608 400.000 213.404 321.000 L 213.200 242.000 185.800 241.789 L 158.400 241.579 158.400 220.800 L 158.400 200.021 185.800 199.811 L 213.200 199.600 213.413 178.348 L 213.626 157.096 217.538 156.093 C 224.891 154.209,226.581 149.682,226.993 130.771 L 227.272 117.943 232.913 117.055 C 239.853 115.962,239.962 115.853,241.047 108.960 L 241.928 103.366 246.974 103.044 C 253.468 102.631,254.454 101.628,254.995 94.886 L 255.419 89.600 267.110 89.575 C 287.411 89.532,293.795 88.065,294.730 83.227 C 294.989 81.892,295.409 79.717,295.665 78.393 C 296.300 75.107,297.600 76.183,297.600 79.995 C 297.600 87.474,299.305 88.425,314.200 89.258 L 324.000 89.806 324.000 103.703 L 324.000 117.600 290.015 117.600 L 256.030 117.600 255.594 119.400 C 255.353 120.390,255.256 138.840,255.378 160.400 L 255.600 199.600 283.503 199.810 L 311.406 200.021 310.912 203.010 C 310.640 204.655,310.414 214.005,310.409 223.789 L 310.400 241.579 283.000 241.789 L 255.600 242.000 255.396 321.000 L 255.192 400.000 323.996 400.000 L 392.800 400.000 392.800 396.400 L 392.800 392.800 396.400 392.800 L 400.000 392.800 400.000 200.000 L 400.000 7.200 396.400 7.200 L 392.800 7.200 392.800 3.600 L 392.800 0.000 196.400 0.000 L 0.000 0.000 0.000 200.000 " stroke="none" fill="#ffffff" fill-rule="evenodd"></path></g></svg>