<?xml version="1.0"?>
<svg width="35" height="30" xmlns="http://www.w3.org/2000/svg" xmlns:svg="http://www.w3.org/2000/svg" preserveAspectRatio="xMidYMid meet">
 <metadata>Created by potrace 1.10, written by Peter Selinger 2001-2011</metadata>
 <g>
  <title>Layer 1</title>
  <g transform="translate(-8,95) scale(0.25,-0.25) " fill="#ffffff" id="svg_1">
   <path d="m12.56948,386.757174c-3.569492,-3.241348 -3.569492,-95.542603 0,-98.783951c2.153027,-1.955099 3.796126,-2.057999 30.595642,-2.057999l28.329299,0l0,20.06549l0,20.06549l-7.932204,0l-7.932204,0l0,7.202996l0,7.202996l7.932204,0l7.932204,0l0,9.518245c0.056659,17.904591 5.835836,23.718438 23.966587,24.284388l11.161744,0.36015l0,-7.717496l0,-7.666046l-7.932204,-0.4116c-9.915254,-0.5145 -10.651816,-1.234799 -11.161744,-10.701595l-0.39661,-7.666046l9.29201,0l9.29201,0l-0.79322,-5.402247c-1.303148,-9.363895 -0.906538,-9.003746 -9.68862,-9.003746l-7.875545,0l0,-20.06549l0,-20.06549l15.864407,0c22.776756,0 20.397095,-5.916747 20.397095,51.449975c0,45.944827 -0.056659,47.385427 -2.266344,49.391976c-3.569492,3.241348 -105.215015,3.241348 -108.784506,0l-0.000001,0z" id="svg_2" stroke="null"/>
  </g>
 </g>
</svg>