<?xml version="1.0" encoding="utf-8"?>
<!-- Generator: Adobe Illustrator 16.0.0, SVG Export Plug-In . SVG Version: 6.00 Build 0)  -->
<!DOCTYPE svg PUBLIC "-//W3C//DTD SVG 1.1//EN" "http://www.w3.org/Graphics/SVG/1.1/DTD/svg11.dtd">
<svg version="1.1" xmlns="http://www.w3.org/2000/svg" xmlns:xlink="http://www.w3.org/1999/xlink" x="0px" y="0px" viewBox="0 0 640 480" enable-background="new 0 0 640 480" xml:space="preserve">
<g id="Layer_1">
	<rect fill="#FFFFFF" width="640" height="480"/>
</g>
<g id="Layer_4">
	<g>
		<path fill="#3B5998" d="M333.283,198.5c-3.379,0-5.811,1.104-8.277,2.229v25.478c2.367,0.231,3.715,0.231,5.963,0.231
			c8.104,0,9.211-3.709,9.211-8.881v-12.173C340.18,201.568,338.912,198.5,333.283,198.5 M279.478,197.108
			c-5.621,0-6.902,3.081-6.902,6.897v2.143h13.801v-2.143C286.376,200.189,285.094,197.108,279.478,197.108 M175.25,223.633
			c0,3.018,1.425,4.584,4.573,4.584c3.379,0,5.377-1.1,7.842-2.23v-6.039h-7.385C176.784,219.947,175.25,220.594,175.25,223.633
			 M385.623,198.5c-5.629,0-7.58,3.068-7.58,6.885v13.945c0,3.828,1.951,6.903,7.58,6.903c5.615,0,7.58-3.075,7.58-6.903v-13.945
			C393.203,201.568,391.238,198.5,385.623,198.5 M147.655,239.262h-16.549v-40.005h-8.272v-13.789h8.272v-8.276
			c0-11.247,4.67-17.937,17.934-17.937h11.046v13.789h-6.901c-5.165,0-5.508,1.928-5.508,5.523l-0.021,6.901h12.51l-1.464,13.789
			h-11.046V239.262z M204.222,239.366h-13.794l-0.595-3.485c-6.302,3.485-11.924,4.051-15.629,4.051
			c-10.119,0-15.504-6.748-15.504-16.084c0-11.01,6.283-14.939,17.523-14.939h11.44v-2.38c0-5.624-0.645-7.271-9.3-7.271h-14.153
			l1.385-13.789h15.469c18.993,0,23.157,5.994,23.157,21.171V239.366z M251.129,200.268c-8.584-1.469-11.049-1.794-15.179-1.794
			c-7.419,0-9.66,1.638-9.66,7.925v11.904c0,6.293,2.241,7.931,9.66,7.931c4.13,0,6.595-0.325,15.179-1.801v13.444
			c-7.52,1.688-12.417,2.129-16.557,2.129c-17.771,0-24.831-9.332-24.831-22.815v-9.657c0-13.494,7.061-22.842,24.831-22.842
			c4.14,0,9.037,0.447,16.557,2.134V200.268z M302.925,217.19h-30.35v1.112c0,6.293,2.243,7.931,9.659,7.931
			c6.67,0,10.738-0.325,19.306-1.801v13.444c-8.262,1.688-12.565,2.129-20.678,2.129c-17.771,0-24.838-9.332-24.838-22.815v-11.042
			c0-11.793,5.247-21.458,23.453-21.458c18.212,0,23.447,9.55,23.447,21.458V217.19z M356.729,217.443
			c0,13.032-3.729,22.537-26.32,22.537c-8.152,0-12.944-0.719-21.948-2.104v-74.482l16.545-2.755v26.052
			c3.576-1.328,8.205-2,12.418-2c16.553,0,19.305,7.411,19.305,19.315V217.443z M409.77,217.73c0,11.24-4.648,22.143-24.09,22.143
			c-19.455,0-24.189-10.902-24.189-22.143v-10.854c0-11.244,4.734-22.148,24.189-22.148c19.441,0,24.09,10.904,24.09,22.148V217.73z
			 M462.768,217.73c0,11.24-4.652,22.143-24.086,22.143c-19.455,0-24.191-10.902-24.191-22.143v-10.854
			c0-11.244,4.736-22.148,24.191-22.148c19.434,0,24.086,10.904,24.086,22.148V217.73z M517.166,239.262h-17.939l-15.168-25.283
			v25.283H467.51v-75.867l16.549-2.755v48.841l15.168-24.013h17.939l-16.561,26.203L517.166,239.262z M438.623,198.5
			c-5.621,0-7.572,3.068-7.572,6.885v13.945c0,3.828,1.951,6.903,7.572,6.903c5.613,0,7.6-3.075,7.6-6.903v-13.945
			C446.223,201.568,444.236,198.5,438.623,198.5"/>
		<path fill="#3B5998" d="M527.387,229.828c2.786,0,5.006,2.27,5.006,5.104c0,2.877-2.22,5.123-5.031,5.123
			c-2.786,0-5.055-2.246-5.055-5.123c0-2.834,2.269-5.104,5.055-5.104H527.387z M527.361,230.622c-2.24,0-4.08,1.928-4.08,4.31
			c0,2.426,1.84,4.33,4.105,4.33c2.266,0.023,4.08-1.904,4.08-4.311c0-2.401-1.814-4.329-4.08-4.329H527.361z M526.408,237.903
			h-0.903v-5.694c0.475-0.068,0.927-0.134,1.605-0.134c0.865,0,1.431,0.179,1.771,0.429c0.342,0.25,0.518,0.634,0.518,1.18
			c0,0.748-0.494,1.199-1.105,1.385v0.046c0.497,0.091,0.839,0.54,0.949,1.378c0.137,0.888,0.273,1.229,0.364,1.411h-0.953
			c-0.136-0.183-0.276-0.706-0.387-1.45c-0.136-0.728-0.497-1.001-1.229-1.001h-0.631V237.903z M526.408,234.75h0.66
			c0.744,0,1.382-0.273,1.382-0.975c0-0.501-0.364-0.998-1.382-0.998c-0.296,0-0.504,0.022-0.66,0.045V234.75z"/>
	</g>
</g>
</svg>
