<?xml version="1.0"?>
<svg xmlns="http://www.w3.org/2000/svg" xmlns:svg="http://www.w3.org/2000/svg">
 <g>
  <title>Layer 1</title>
  <g transform="translate(0,100) scale(0.15,-0.15) " stroke="null" id="svg_7">
   <path stroke="null" id="svg_1" d="m32.481806,18.228715c0,3.993862 -2.580121,6.936873 -5.746515,6.936873s-5.746515,-2.94301 -5.746515,-6.936873c0,-4.02201 2.580121,-6.936873 5.746515,-6.936873s5.746515,2.914863 5.746515,6.936873zm-2.515553,0c0,-2.495773 -1.495385,-4.203407 -3.230962,-4.203407s-3.230962,1.707634 -3.230962,4.203407c0,2.470753 1.495385,4.203407 3.230962,4.203407s3.230962,-1.735782 3.230962,-4.203407z" fill="#EA4335"/>
   <path stroke="null" id="svg_2" d="m44.878782,18.228715c0,3.993862 -2.580121,6.936873 -5.746515,6.936873s-5.746515,-2.94301 -5.746515,-6.936873c0,-4.018882 2.580121,-6.936873 5.746515,-6.936873s5.746515,2.914863 5.746515,6.936873zm-2.515553,0c0,-2.495773 -1.495385,-4.203407 -3.230962,-4.203407s-3.230962,1.707634 -3.230962,4.203407c0,2.470753 1.495385,4.203407 3.230962,4.203407s3.230962,-1.735782 3.230962,-4.203407z" fill="#FBBC05"/>
   <path stroke="null" id="svg_3" d="m56.759218,11.710932l0,12.453844c0,5.122902 -2.494891,7.215223 -5.444339,7.215223c-2.776406,0 -4.447415,-2.248698 -5.077595,-4.087688l2.190132,-1.10402c0.389988,1.12904 1.345588,2.46137 2.88488,2.46137c1.887956,0 3.057921,-1.410518 3.057921,-4.065795l0,-0.997684l-0.087812,0c-0.563029,0.841307 -1.647765,1.576278 -3.016597,1.576278c-2.864218,0 -5.488245,-3.021199 -5.488245,-6.908725c0,-3.915674 2.624027,-6.961893 5.488245,-6.961893c1.36625,0 2.450985,0.734971 3.016597,1.551257l0.087812,0l0,-1.12904l2.389001,0l0,-0.003128zm-2.210794,6.545931c0,-2.442605 -1.345588,-4.228427 -3.057921,-4.228427c-1.735577,0 -3.189639,1.785822 -3.189639,4.228427c0,2.417585 1.454062,4.178387 3.189639,4.178387c1.712332,0 3.057921,-1.760802 3.057921,-4.178387z" fill="#4285F4"/>
   <path stroke="null" id="svg_4" d="m60.69784,4.411265l0,20.328977l-2.453568,0l0,-20.328977l2.453568,0z" fill="#34A853"/>
   <path stroke="null" id="svg_5" d="m70.259008,20.511815l1.952524,1.576278c-0.63018,1.12904 -2.148809,3.074367 -4.772836,3.074367c-3.254206,0 -5.68453,-3.046219 -5.68453,-6.936873c0,-4.125219 2.450985,-6.936873 5.403015,-6.936873c2.972692,0 4.426754,2.864822 4.901971,4.412952l0.260853,0.788139l-7.657715,3.840613c0.586274,1.391753 1.497968,2.101704 2.776406,2.101704c1.281021,0 2.169471,-0.763119 2.820312,-1.920306zm-6.009951,-2.495773l5.118918,-2.573961c-0.281515,-0.866327 -1.128641,-1.469941 -2.125565,-1.469941c-1.278438,0 -3.057921,1.366733 -2.993353,4.043903z" fill="#EA4335"/>
   <path stroke="null" id="svg_6" d="m11.701375,16.424127l0,-2.94301l8.189752,0c0.080064,0.512916 0.121387,1.119658 0.121387,1.77644c0,2.20804 -0.498462,4.938378 -2.104903,6.883705c-1.562536,1.970347 -3.558965,3.021199 -6.203653,3.021199c-4.901971,0 -9.023965,-4.835169 -9.023965,-10.771231c0,-5.936061 4.121995,-10.771231 9.023965,-10.771231c2.711838,0 4.643701,1.288544 6.09518,2.968031l-1.714915,2.076683c-1.040829,-1.182208 -2.450985,-2.101704 -4.382848,-2.101704c-3.579627,0 -6.379277,3.493457 -6.379277,7.82822c0,4.334763 2.79965,7.82822 6.379277,7.82822c2.32185,0 3.644194,-1.12904 4.491321,-2.154872c0.686999,-0.831924 1.138972,-2.020388 1.317179,-3.643578l-5.8085,0.003128z" fill="#4285F4"/>
  </g>
 </g>
</svg>