<?xml version="1.0"?>
<svg width="272" height="92" xmlns="http://www.w3.org/2000/svg" xmlns:svg="http://www.w3.org/2000/svg">
 <g>
  <title>Layer 1</title>
  <g stroke="null" id="svg_7">
   <path stroke="null" id="svg_1" d="m40.725047,20.026216c0,3.70612 -3.061763,6.437098 -6.819242,6.437098s-6.819242,-2.730978 -6.819242,-6.437098c0,-3.73224 3.061763,-6.437098 6.819242,-6.437098s6.819242,2.704858 6.819242,6.437098zm-2.985142,0c0,-2.315962 -1.774535,-3.900568 -3.834099,-3.900568s-3.834099,1.584606 -3.834099,3.900568c0,2.292745 1.774535,3.900568 3.834099,3.900568s3.834099,-1.610726 3.834099,-3.900568z" fill="#EA4335"/>
   <path stroke="null" id="svg_2" d="m55.436219,20.026216c0,3.70612 -3.061763,6.437098 -6.819242,6.437098s-6.819242,-2.730978 -6.819242,-6.437098c0,-3.729338 3.061763,-6.437098 6.819242,-6.437098s6.819242,2.704858 6.819242,6.437098zm-2.985142,0c0,-2.315962 -1.774535,-3.900568 -3.834099,-3.900568s-3.834099,1.584606 -3.834099,3.900568c0,2.292745 1.774535,3.900568 3.834099,3.900568s3.834099,-1.610726 3.834099,-3.900568z" fill="#FBBC05"/>
   <path stroke="null" id="svg_3" d="m69.534427,13.978014l0,11.556594c0,4.753817 -2.960624,6.695395 -6.460657,6.695395c-3.29469,0 -5.277633,-2.086688 -6.025451,-3.793186l2.598974,-1.02448c0.462789,1.047697 1.596775,2.284038 3.423413,2.284038c2.240389,0 3.628756,-1.308896 3.628756,-3.772871l0,-0.925804l-0.104204,0c-0.668132,0.780694 -1.95536,1.462713 -3.579719,1.462713c-3.398894,0 -6.512759,-2.803533 -6.512759,-6.410978c0,-3.633565 3.113865,-6.460316 6.512759,-6.460316c1.621294,0 2.908521,0.682019 3.579719,1.439495l0.104204,0l0,-1.047697l2.834966,0l0,-0.002902zm-2.623492,6.074322c0,-2.266625 -1.596775,-3.923786 -3.628756,-3.923786c-2.059564,0 -3.785062,1.657161 -3.785062,3.923786c0,2.243407 1.725498,3.87735 3.785062,3.87735c2.031981,0 3.628756,-1.633943 3.628756,-3.87735z" fill="#4285F4"/>
   <path stroke="null" id="svg_4" d="m74.208289,7.204259l0,18.864355l-2.911586,0l0,-18.864355l2.911586,0z" fill="#34A853"/>
   <path stroke="null" id="svg_5" d="m85.554281,22.144828l2.31701,1.462713c-0.747818,1.047697 -2.549937,2.852871 -5.663802,2.852871c-3.861683,0 -6.745686,-2.826751 -6.745686,-6.437098c0,-3.828013 2.908521,-6.437098 6.411619,-6.437098c3.527617,0 5.253115,2.658423 5.817043,4.095016l0.309548,0.731357l-9.087214,3.563912c0.695716,1.291483 1.7776,1.950284 3.29469,1.950284c1.520155,0 2.574455,-0.708139 3.346792,-1.781956zm-7.131854,-2.315962l6.074488,-2.388518c-0.334066,-0.803912 -1.33933,-1.364038 -2.522353,-1.364038c-1.51709,0 -3.628756,1.268265 -3.552135,3.752555z" fill="#EA4335"/>
   <path stroke="null" id="svg_6" d="m16.065443,18.351642l0,-2.730978l9.718569,0c0.09501,0.475962 0.144047,1.038991 0.144047,1.648454c0,2.048959 -0.591512,4.582587 -2.497835,6.387761c-1.854221,1.828391 -4.223333,2.803533 -7.361716,2.803533c-5.817043,0 -10.708508,-4.486814 -10.708508,-9.995206c0,-5.508392 4.891465,-9.995206 10.708508,-9.995206c3.218069,0 5.51056,1.19571 7.232993,2.754196l-2.035046,1.927066c-1.235126,-1.097035 -2.908521,-1.950284 -5.201013,-1.950284c-4.247851,0 -7.570124,3.241767 -7.570124,7.264228c0,4.022461 3.322273,7.264228 7.570124,7.264228c2.75528,0 4.324472,-1.047697 5.329735,-1.999622c0.815244,-0.771987 1.351589,-1.874827 1.563062,-3.381073l-6.892797,0.002902z" fill="#4285F4"/>
  </g>
 </g>
</svg>