<?xml version="1.0" standalone="no"?>
<!DOCTYPE svg PUBLIC "-//W3C//DTD SVG 20010904//EN"
 "http://www.w3.org/TR/2001/REC-SVG-20010904/DTD/svg10.dtd">
<svg version="1.0" xmlns="http://www.w3.org/2000/svg"
 width="600.000000pt" height="495.000000pt" viewBox="0 0 600.000000 495.000000"
 preserveAspectRatio="xMidYMid meet">
<metadata>
Created by potrace 1.14, written by Peter Selinger 2001-2017
</metadata>
<g transform="translate(0.000000,495.000000) scale(0.100000,-0.100000)"
fill="#000000" stroke="none">
<path d="M291 4949 c-1 -3 -23 -79 -51 -168 -55 -179 -59 -217 -31 -289 45
-113 51 -181 51 -565 0 -481 -10 -603 -63 -792 -16 -56 -13 -75 36 -237 17
-60 37 -108 42 -108 6 0 37 41 70 91 93 142 166 189 291 189 52 0 74 4 74 13
1 6 7 48 15 92 8 44 15 102 15 130 0 42 -5 54 -32 82 -34 35 -46 84 -47 198
l-1 61 45 12 c77 21 171 70 218 116 l45 45 13 -51 c32 -135 101 -258 176 -312
91 -66 219 -70 340 -10 51 25 209 167 232 209 9 17 12 18 21 5 5 -8 17 -45 27
-82 10 -38 21 -68 26 -68 4 0 34 19 65 42 96 72 123 81 210 68 40 -7 75 -10
78 -8 2 3 8 29 12 59 l9 54 24 -52 c13 -29 28 -53 32 -53 5 0 27 13 50 29 64
43 84 52 140 61 49 7 54 6 99 -26 l46 -35 20 53 c10 29 27 77 37 105 11 29 20
51 22 50 1 -2 10 -39 19 -83 9 -43 20 -83 24 -87 4 -5 32 7 62 26 30 19 71 40
93 47 52 17 184 8 260 -19 32 -11 62 -18 66 -13 4 4 26 49 49 101 30 70 40
105 38 135 -3 38 -6 41 -42 51 -53 15 -70 50 -62 126 3 32 18 88 32 125 l27
67 19 -51 c26 -70 91 -128 152 -137 26 -4 63 -5 82 -2 l34 6 -1 -42 c-2 -69
-11 -88 -56 -111 -38 -19 -42 -25 -43 -57 0 -20 12 -63 26 -95 56 -127 64
-144 70 -144 3 0 26 9 51 21 62 28 177 24 243 -10 25 -12 66 -31 92 -42 l48
-19 11 45 c6 25 14 47 18 49 3 2 29 -32 56 -75 28 -43 55 -78 61 -79 6 0 23
18 38 40 30 45 33 46 82 25 33 -14 135 -91 142 -107 8 -17 29 -7 41 19 l12 26
19 -31 c23 -37 18 -36 80 -16 45 15 53 15 100 -1 47 -16 118 -65 194 -136 30
-28 46 -29 46 -4 0 34 85 31 164 -5 46 -21 147 -114 202 -185 30 -39 44 -44
44 -15 0 10 9 24 20 30 39 21 94 -6 211 -104 146 -123 196 -150 275 -151 48 0
68 5 96 24 66 46 125 160 147 285 14 75 14 388 1 481 -35 239 -109 373 -226
405 -43 12 -70 9 -131 -16 -10 -4 -13 16 -13 83 0 125 16 220 45 269 16 26 25
58 25 83 0 32 -37 185 -65 269 -3 9 -27 -6 -71 -42 -36 -31 -75 -57 -87 -57
-61 -4 -108 6 -172 36 -96 45 -115 50 -115 31 0 -10 -23 -22 -71 -37 -94 -29
-174 -22 -260 21 -34 17 -65 28 -69 23 -13 -15 -50 -182 -50 -229 0 -34 6 -53
25 -75 34 -42 44 -85 55 -239 10 -157 2 -457 -12 -420 -17 46 -96 456 -108
558 -11 98 -10 106 9 143 34 65 28 109 -25 189 -26 39 -51 70 -56 70 -5 0 -30
-12 -55 -26 -37 -22 -61 -28 -137 -32 -89 -4 -95 -3 -159 29 -37 18 -68 31
-70 28 -2 -2 -21 -33 -42 -69 -50 -86 -56 -135 -21 -186 14 -22 26 -53 26 -70
0 -29 -3 -32 -47 -44 -27 -6 -56 -19 -66 -27 -22 -21 -35 -9 -15 14 21 24 45
96 53 163 6 48 -2 129 -21 220 l-5 26 -65 -32 c-90 -44 -122 -47 -260 -24 -65
11 -137 20 -159 20 -40 0 -145 -21 -177 -35 -13 -5 -20 -1 -28 19 -11 31 -5
30 -77 11 -73 -19 -166 -19 -229 0 -48 14 -49 14 -69 -11 l-21 -26 -12 27
c-14 29 -14 29 -92 -2 -63 -24 -236 -26 -254 -1 -17 23 -106 36 -106 15 0 -30
-99 -36 -165 -11 -78 30 -80 30 -94 -18 l-13 -43 -18 45 c-20 50 -22 50 -94
14 -62 -30 -121 -31 -234 -4 -46 11 -89 20 -96 20 -7 0 -23 -34 -36 -77 -13
-43 -25 -80 -27 -82 -1 -2 -23 15 -49 38 -26 23 -77 56 -113 74 -60 29 -74 32
-161 32 -85 0 -101 -3 -153 -30 -63 -31 -140 -108 -184 -182 l-26 -46 -24 46
c-30 61 -109 138 -169 167 -37 18 -72 25 -139 28 -83 4 -97 2 -172 -28 -49
-18 -96 -30 -115 -28 -36 3 -44 16 -108 158 -15 36 -29 62 -29 59z m81 -253
c34 -24 88 -19 175 14 147 58 278 38 369 -55 57 -60 113 -186 115 -264 0 -18
8 -6 25 39 59 158 129 254 220 300 41 21 63 25 134 25 109 0 176 -29 259 -112
100 -101 151 -237 152 -408 2 -242 -77 -444 -228 -585 -89 -83 -170 -121 -261
-123 -94 -1 -147 26 -205 104 -56 75 -105 217 -114 330 -6 84 -16 107 -28 62
-13 -51 -81 -135 -151 -183 -22 -16 -82 -43 -132 -60 -105 -37 -96 -20 -92
-175 2 -129 17 -206 47 -237 24 -25 25 -30 18 -102 l-7 -76 -59 0 c-33 0 -76
-7 -96 -15 -61 -26 -136 -89 -178 -149 -21 -31 -41 -56 -45 -56 -4 0 -17 34
-29 75 -16 56 -19 80 -11 94 38 72 70 440 70 816 0 305 -14 476 -48 579 -14
44 -26 86 -25 91 3 20 44 159 50 168 3 6 17 -11 29 -36 13 -25 34 -53 46 -61z
m3652 68 c3 -9 6 -43 6 -77 0 -109 -64 -208 -145 -225 l-40 -8 0 -209 c0 -116
3 -222 7 -236 4 -14 23 -46 42 -71 l35 -46 -16 -49 c-9 -26 -17 -49 -18 -51
-1 -1 -33 12 -71 30 -63 29 -78 32 -164 32 -52 0 -107 -4 -121 -8 -24 -7 -27
-4 -49 48 -12 31 -21 58 -19 59 2 2 16 11 31 20 17 11 31 31 37 54 9 37 22
303 14 303 -2 0 -16 -15 -32 -32 -27 -30 -34 -33 -89 -33 -72 0 -104 20 -142
86 -22 38 -25 56 -25 137 0 50 -2 92 -5 92 -3 0 -14 -17 -25 -37 -11 -21 -23
-40 -26 -43 -13 -11 -77 -158 -93 -213 -37 -129 -13 -284 48 -307 15 -5 26
-13 26 -17 0 -14 -44 -103 -51 -103 -5 0 -34 7 -66 15 -31 8 -95 15 -141 15
-74 0 -92 -4 -144 -30 -33 -17 -62 -29 -64 -27 -2 2 -9 29 -15 60 -12 56 -12
56 19 82 47 40 66 100 59 193 -3 42 -12 93 -20 112 -32 74 -186 322 -208 335
-4 3 -16 -16 -26 -42 -16 -42 -18 -79 -18 -298 0 -269 5 -299 53 -320 12 -5
22 -14 22 -19 0 -18 -43 -126 -50 -126 -4 0 -20 6 -36 14 -50 24 -148 3 -226
-48 l-26 -17 -21 47 c-12 25 -21 50 -21 54 0 4 14 22 30 40 17 18 30 40 30 49
0 16 -26 60 -42 71 -23 16 -150 144 -173 175 -15 19 -30 35 -34 35 -3 0 -5
-46 -3 -102 4 -153 36 -248 83 -248 27 0 31 -15 24 -82 l-7 -61 -63 7 c-51 5
-71 2 -111 -15 -27 -12 -62 -33 -78 -46 -16 -13 -32 -20 -36 -16 -4 4 -15 34
-24 66 l-17 59 25 25 c53 53 61 103 61 388 0 285 -10 352 -61 427 -27 39 -27
33 1 125 3 9 15 9 52 -2 26 -9 82 -18 123 -21 61 -5 85 -3 128 14 l53 21 20
-46 c23 -54 24 -67 4 -83 -8 -7 -15 -25 -15 -41 0 -31 29 -69 127 -165 l63
-61 0 51 c0 93 -40 205 -81 227 -22 11 -22 33 -1 90 l10 26 60 -15 c51 -14 70
-14 124 -4 82 16 83 16 148 -3 66 -20 181 -15 250 10 49 17 40 22 90 -45 l18
-24 21 34 c11 19 22 39 24 43 1 5 24 3 50 -4 47 -11 175 -8 224 6 17 6 22 2
28 -24 4 -17 9 -31 13 -31 3 0 25 10 50 21 77 38 172 45 303 24 142 -23 217
-22 267 4 46 25 48 25 56 5z m1597 -158 c-44 -107 -44 -107 -50 -364 -6 -266
-2 -318 17 -240 30 120 135 161 224 88 84 -70 138 -274 138 -530 0 -254 -62
-426 -165 -460 -70 -23 -132 5 -264 120 -138 120 -160 133 -231 134 -50 0 -60
3 -65 20 -6 19 -8 19 -12 4 -2 -10 -6 -18 -8 -18 -1 0 -32 29 -68 64 -40 40
-88 77 -128 96 -58 28 -71 31 -139 27 -78 -5 -95 2 -162 63 -57 52 -133 70
-237 58 -19 -2 -30 7 -54 45 l-29 48 26 37 c22 32 26 49 26 107 0 54 -3 66
-12 57 -14 -14 -77 -16 -112 -2 -25 9 -26 8 -20 -18 9 -39 51 -109 76 -126 20
-14 20 -18 9 -53 -7 -21 -19 -47 -26 -57 -14 -18 -17 -17 -67 21 -88 67 -160
81 -192 38 l-19 -25 -39 56 -39 56 41 48 c46 54 87 140 96 202 8 48 -10 47
-21 -2 -8 -37 -24 -38 -63 -2 -79 74 -60 251 31 299 17 8 51 17 76 18 41 3 47
6 52 32 15 67 9 139 -16 188 l-24 49 22 38 c17 31 25 38 42 33 102 -33 124
-36 210 -30 62 4 100 12 123 26 18 10 35 19 37 19 2 0 16 -21 31 -46 27 -45
27 -46 9 -77 -16 -26 -17 -45 -11 -142 14 -246 140 -805 179 -792 40 13 61
222 53 517 -6 238 -20 333 -56 382 -23 31 -24 51 -9 114 9 36 15 44 28 38 112
-49 192 -55 297 -23 49 15 69 18 72 10 3 -8 9 -6 17 6 10 13 16 15 26 6 32
-25 132 -53 190 -53 64 0 86 8 134 48 l29 24 20 -72 c17 -62 18 -77 7 -104z
m-2988 -258 c78 -133 93 -167 100 -224 6 -57 -13 -100 -57 -129 -21 -14 -31
-15 -60 -5 -19 6 -38 19 -42 28 -17 38 -17 422 1 422 2 0 28 -42 58 -92z
m1344 5 c-17 -30 -22 -57 -25 -136 -5 -108 9 -163 55 -217 l25 -30 -22 -30
c-21 -29 -23 -30 -40 -15 -10 9 -30 34 -45 55 -25 36 -26 46 -32 197 l-6 160
41 16 c22 9 43 21 47 27 3 5 10 10 15 10 5 0 -1 -17 -13 -37z"/>
<path d="M1350 4723 c-13 -3 -35 -14 -49 -24 -13 -10 -28 -19 -34 -19 -20 0
-104 -100 -136 -162 -29 -56 -54 -138 -81 -263 -17 -75 -11 -266 10 -366 11
-52 20 -98 20 -104 0 -5 5 -3 11 5 9 12 10 11 6 -7 -5 -23 40 -123 55 -123 4
0 8 -4 8 -10 0 -13 46 -58 78 -74 43 -22 157 -15 213 12 53 26 189 147 189
168 0 8 5 14 10 14 6 0 10 5 10 10 0 6 8 20 18 30 19 21 71 149 93 230 15 57
17 279 2 345 -11 50 -47 129 -70 153 -7 7 -13 17 -13 22 0 9 -45 56 -95 98
-61 51 -172 81 -245 65z m119 -117 c16 -17 30 -50 43 -108 27 -122 30 -161 30
-398 0 -175 -3 -224 -17 -265 -40 -119 -75 -165 -127 -165 -41 0 -67 24 -78
72 -3 18 -11 32 -16 31 -5 -1 -9 22 -10 50 -1 29 -4 133 -9 232 -8 193 4 388
30 485 26 98 93 126 154 66z"/>
<path d="M1372 4588 c-25 -32 -41 -116 -52 -273 -19 -291 13 -589 66 -609 41
-16 96 74 114 184 23 145 6 520 -29 639 -19 62 -71 93 -99 59z m56 -176 c36
-175 40 -472 7 -579 -20 -67 -31 -73 -45 -26 -17 58 -25 422 -11 535 17 147
29 165 49 70z"/>
<path d="M306 4685 c4 -20 3 -26 -4 -17 -7 10 -11 5 -16 -20 -4 -22 0 -49 13
-83 44 -116 46 -147 45 -650 0 -384 -3 -502 -16 -590 -9 -60 -21 -123 -27
-138 -6 -16 -8 -33 -5 -39 4 -7 2 -8 -5 -4 -9 6 -11 -3 -7 -35 3 -23 9 -46 14
-51 5 -5 23 10 41 32 31 39 75 72 149 112 18 10 59 21 92 25 60 6 60 6 60 39
0 18 2 39 5 46 3 8 -8 28 -24 45 -25 26 -30 42 -37 109 -5 44 -8 130 -9 193
l0 114 80 28 c44 15 88 32 97 38 10 6 25 11 33 11 8 0 15 5 15 10 0 6 4 10 10
10 5 0 19 8 31 18 99 81 147 202 155 387 3 91 0 124 -18 189 -23 87 -30 98
-103 171 -32 32 -65 55 -92 63 -50 14 -136 16 -161 3 -47 -26 -142 -53 -187
-54 -56 0 -90 14 -118 47 -17 21 -17 21 -11 -9z m421 -114 c14 -14 24 -42 32
-88 12 -79 21 -383 9 -338 -5 20 -6 12 -3 -25 3 -33 1 -47 -4 -35 -6 15 -9 11
-13 -21 -6 -45 -38 -88 -80 -110 -37 -19 -94 -18 -102 2 -10 26 3 474 15 496
6 10 8 34 5 51 -4 23 -4 26 3 12 7 -18 9 -16 15 13 4 18 14 39 23 47 21 21 75
19 100 -4z"/>
<path d="M653 4548 c-6 -7 -19 -35 -29 -63 -15 -42 -19 -88 -22 -274 -2 -123
0 -227 5 -231 15 -15 76 24 95 61 43 84 50 400 10 477 -20 40 -42 51 -59 30z"/>
<path d="M3051 4713 c-11 -12 -9 -19 10 -41 13 -15 30 -33 38 -39 11 -9 11
-13 2 -13 -9 0 -11 -16 -7 -62 4 -45 3 -59 -5 -48 -8 12 -9 10 -7 -10 2 -25
-49 -150 -62 -150 -12 0 -40 36 -40 51 0 11 -2 11 -8 2 -5 -8 -8 2 -8 23 0 19
-5 39 -11 42 -16 10 -33 57 -43 117 -6 37 -4 58 7 82 8 18 12 37 8 43 -7 11
-79 5 -99 -8 -21 -12 -131 -11 -185 2 -69 17 -323 14 -329 -4 -2 -6 5 -21 16
-33 56 -62 82 -177 82 -366 0 -103 -9 -106 -39 -16 -17 48 -42 84 -58 85 -7 0
-13 4 -13 8 0 4 -29 38 -66 75 -87 90 -114 155 -80 200 7 9 11 28 8 42 -4 21
-8 24 -31 19 -14 -4 -30 -10 -36 -14 -14 -10 -120 -6 -189 8 -33 6 -61 11 -62
9 -13 -17 -11 -47 5 -66 19 -21 31 -70 60 -227 23 -125 8 -473 -25 -560 -8
-23 -24 -50 -34 -59 -21 -19 -26 -50 -10 -60 6 -4 8 -11 5 -16 -7 -11 32 3 78
28 17 10 61 20 97 23 61 5 65 7 63 28 -2 16 1 21 10 17 6 -4 -3 5 -21 20 -43
35 -67 85 -81 166 -13 76 -15 328 -2 347 5 9 18 -7 39 -50 38 -77 71 -117 185
-226 36 -35 69 -72 72 -83 4 -10 9 -19 13 -19 4 0 7 -13 7 -30 0 -16 -3 -30
-7 -30 -5 0 -8 -6 -8 -13 0 -8 -9 -22 -20 -32 -22 -20 -23 -24 -11 -43 7 -11
19 -9 62 10 41 17 72 23 130 23 74 0 77 1 87 28 9 23 7 29 -8 37 -38 20 -62
144 -61 320 1 143 9 254 22 288 6 15 5 21 -1 17 -6 -4 -7 1 -2 12 32 72 43 92
52 98 16 10 46 -21 96 -95 23 -36 52 -75 63 -87 12 -12 21 -29 21 -37 0 -8 5
-18 11 -21 5 -4 28 -46 51 -93 39 -85 40 -90 40 -189 -1 -109 -7 -130 -53
-178 -16 -17 -27 -40 -26 -53 2 -26 6 -27 55 -6 49 21 181 25 260 7 68 -15 77
-13 85 16 3 14 -1 22 -14 26 -41 13 -71 120 -67 241 2 45 7 77 11 70 5 -6 7
-1 6 14 -1 14 10 52 25 84 14 33 24 66 21 73 -2 8 0 11 5 8 6 -3 10 1 10 9 0
9 5 16 10 16 6 0 10 6 10 13 0 6 9 23 20 37 11 14 20 33 20 43 0 10 4 16 9 13
5 -3 16 10 25 28 9 19 30 46 46 60 17 13 30 34 30 44 0 21 -7 22 -100 7 -25
-4 -68 -3 -95 2 -40 8 -54 7 -64 -4z"/>
<path d="M3464 4721 c-47 -12 -92 -42 -119 -81 -29 -42 -55 -112 -55 -150 0
-40 31 -131 53 -157 78 -89 205 -13 181 107 -9 40 -67 63 -104 40 -12 -7 -12
-12 -1 -34 8 -13 11 -32 8 -40 -8 -20 -60 -21 -76 -3 -17 22 -10 83 15 114 21
27 25 28 117 28 53 0 98 -3 102 -7 16 -16 2 -531 -15 -536 -5 -2 -8 -7 -5 -11
2 -5 -7 -19 -20 -31 -14 -13 -25 -34 -25 -47 l0 -24 121 4 c67 2 115 0 107 -4
-9 -6 -4 -9 15 -9 15 0 45 -9 67 -20 49 -25 47 -25 52 5 3 15 -2 32 -13 44
-11 11 -19 23 -19 27 0 4 -7 15 -16 25 -20 22 -33 166 -34 377 l0 152 38 1
c20 0 51 8 67 18 42 24 94 124 93 177 l-2 41 -45 -14 c-62 -18 -107 -18 -226
1 -104 17 -208 19 -261 7z"/>
<path d="M2956 4658 c-9 -12 -16 -32 -16 -44 0 -25 31 -118 56 -165 l17 -34
20 44 c10 24 22 71 25 103 5 57 4 60 -28 88 -40 36 -54 37 -74 8z"/>
<path d="M4570 4710 c-47 -30 -204 -32 -321 -4 -38 9 -43 -17 -13 -76 25 -49
25 -52 14 -148 -7 -53 -17 -100 -23 -104 -7 -4 -26 -5 -43 -2 -40 7 -104 -19
-104 -43 0 -14 -2 -15 -9 -4 -7 11 -12 4 -20 -25 -14 -51 -13 -112 3 -149 l12
-30 19 23 c33 38 96 21 95 -25 -1 -41 -56 -177 -83 -205 -7 -7 -20 -28 -29
-47 -14 -29 -14 -36 -2 -48 10 -10 19 -11 33 -4 43 23 181 -19 216 -66 13 -17
14 -17 23 7 10 25 -3 52 -35 73 -24 15 -58 163 -45 197 7 20 9 19 41 -12 43
-42 93 -44 127 -5 22 26 43 35 44 20 12 -184 12 -182 -12 -231 l-25 -49 21
-24 c19 -22 27 -24 68 -19 59 7 171 -34 220 -81 30 -28 33 -29 45 -13 17 24
16 31 -6 61 -11 13 -27 50 -36 81 -9 31 -23 71 -30 87 -8 17 -23 82 -35 145
-11 63 -31 170 -45 237 -39 194 -50 406 -23 440 6 7 4 19 -4 32 -15 24 -17 24
-38 11z m-193 -220 c6 -30 17 -73 23 -95 18 -65 40 -187 40 -226 0 -39 -14
-59 -42 -59 -12 0 -28 21 -50 68 -17 37 -35 70 -40 73 -16 11 -20 82 -8 139 6
30 14 73 16 95 7 58 12 67 31 63 13 -2 22 -20 30 -58z"/>
<path d="M5115 4700 c-41 -14 -66 -16 -135 -10 -47 5 -97 11 -112 15 -21 6
-27 3 -32 -13 -9 -27 3 -74 17 -65 5 3 7 2 4 -4 -6 -9 1 -35 29 -108 10 -26
11 -43 12 -365 1 -305 1 -317 -17 -378 -6 -23 -9 -47 -6 -52 4 -6 2 -9 -4 -8
-6 2 -21 -14 -33 -34 -18 -30 -20 -43 -12 -65 9 -26 13 -28 76 -31 83 -3 158
-36 227 -98 48 -44 50 -44 61 -24 9 17 8 29 -6 58 -17 37 -24 63 -47 177 -8
40 -12 181 -12 420 0 373 1 384 45 497 16 42 17 93 1 102 -3 2 -28 -5 -56 -14z"/>
<path d="M5241 4707 c-17 -17 -13 -56 13 -111 54 -115 61 -181 60 -556 -1
-317 -3 -352 -22 -429 -12 -49 -29 -91 -41 -102 -17 -16 -19 -24 -11 -45 6
-14 10 -36 10 -50 0 -22 4 -24 43 -24 50 0 102 -13 121 -32 8 -7 26 -22 41
-33 14 -11 47 -39 73 -62 26 -23 58 -51 72 -62 14 -11 31 -25 38 -31 52 -45
143 -47 180 -5 38 44 54 75 48 92 -4 10 -4 14 1 10 15 -15 43 120 49 238 10
181 -36 446 -87 507 -60 70 -71 78 -108 78 -73 0 -114 -80 -119 -232 -2 -65 0
-108 6 -108 5 0 12 -18 16 -40 l6 -40 20 20 c41 41 92 -23 118 -149 14 -66 14
-91 5 -146 -12 -71 -41 -115 -75 -115 -49 0 -104 67 -133 161 -20 66 -37 252
-35 374 1 50 2 97 2 105 -7 188 4 564 18 589 5 11 10 27 10 35 0 9 10 37 21
62 16 34 19 48 10 57 -6 6 -11 19 -11 29 0 10 -4 18 -10 18 -5 0 -10 -4 -10
-9 0 -15 -96 -33 -152 -28 -54 4 -69 8 -124 32 -23 10 -34 11 -43 2z"/>
<path d="M5186 4553 c-28 -81 -39 -259 -33 -538 6 -262 13 -326 43 -422 48
-152 84 44 84 457 0 125 -5 274 -10 330 -10 94 -40 203 -60 215 -4 3 -15 -16
-24 -42z"/>
<path d="M5575 3640 c5 -119 19 -190 50 -250 20 -40 52 -70 72 -70 53 0 57
239 6 309 -25 32 -36 30 -46 -9 -4 -16 -11 -30 -16 -30 -9 0 -57 102 -65 140
-3 14 -3 -27 -1 -90z"/>
<path d="M4204 3439 c-179 -16 -431 -64 -904 -174 -730 -169 -1029 -224 -1222
-225 -44 0 -48 2 -48 24 0 30 -23 54 -70 74 -50 21 -103 16 -171 -18 -57 -29
-104 -38 -111 -22 -1 5 -37 32 -78 60 -42 28 -90 67 -108 86 -18 20 -37 36
-43 36 -5 0 -21 -11 -34 -26 -20 -22 -30 -52 -51 -151 -5 -28 -14 -29 -160 -2
-119 21 -149 21 -92 0 18 -7 47 -18 63 -25 17 -7 63 -21 104 -32 66 -17 94
-35 78 -50 -6 -6 -165 48 -251 85 -27 12 -51 19 -54 17 -3 -3 6 -10 19 -15 13
-5 69 -30 124 -56 55 -26 120 -55 145 -65 25 -10 62 -25 82 -34 l36 -16 -45
-44 c-26 -26 -43 -51 -40 -59 3 -7 31 -19 63 -26 70 -16 96 -28 159 -76 67
-52 76 -44 68 56 -7 96 8 102 26 11 8 -42 8 -68 1 -86 -16 -43 -13 -49 23 -42
53 10 219 74 228 87 4 7 5 18 2 26 -7 17 7 17 125 -4 77 -14 154 -17 372 -17
304 1 475 15 930 79 586 82 689 90 731 56 21 -17 22 -21 9 -50 -12 -31 -115
-129 -148 -143 -9 -4 -29 -7 -43 -7 -25 -1 -28 -7 -48 -83 -12 -46 -26 -96
-32 -112 -8 -25 -3 -41 37 -114 l45 -84 -21 -69 -22 -69 -540 0 c-509 0 -539
1 -534 18 45 155 96 347 98 371 1 20 -6 39 -22 56 l-23 25 -696 -1 c-576 -1
-1034 -10 -906 -17 259 -15 402 -24 455 -29 l65 -7 -70 -7 c-38 -4 -143 -10
-233 -14 -90 -4 -160 -11 -155 -15 4 -4 116 -13 248 -20 132 -7 281 -15 330
-19 87 -6 84 -7 -85 -14 -96 -3 -305 -10 -465 -14 -168 -4 -277 -10 -260 -14
17 -5 212 -13 435 -20 222 -7 396 -16 385 -20 -11 -4 -240 -17 -510 -28 -269
-12 -503 -22 -520 -23 -104 -5 277 -16 635 -17 234 -2 421 -4 415 -6 -5 -2
-156 -13 -335 -25 -179 -12 -449 -29 -600 -39 l-275 -18 590 -3 c609 -3 614
-4 165 -34 -319 -22 -503 -35 -710 -51 -175 -14 -174 -14 225 -9 220 2 513 7
650 10 138 3 248 4 245 1 -3 -3 -187 -18 -410 -33 l-405 -29 405 -5 c223 -3
394 -8 380 -12 -14 -3 -75 -12 -137 -19 -62 -7 -110 -16 -107 -21 3 -4 57 -8
120 -8 63 0 114 -4 114 -8 0 -5 -170 -14 -377 -21 -208 -6 -463 -16 -568 -21
-104 -5 -296 -13 -425 -17 l-235 -8 320 -6 c176 -4 534 -7 795 -9 547 -3 543
-11 -20 -36 -212 -9 -493 -22 -625 -29 -237 -13 -233 -13 388 -12 346 1 614
-1 595 -5 -18 -4 -253 -19 -523 -33 -269 -14 -499 -27 -510 -29 -23 -4 103 -7
685 -15 l425 -6 -490 -19 c-1135 -43 -1136 -43 -276 -45 420 0 762 -3 760 -5
-2 -2 -161 -11 -354 -20 -192 -10 -354 -19 -360 -20 -5 -2 103 -6 240 -10 138
-3 297 -9 355 -13 102 -7 99 -7 -140 -19 -135 -7 -252 -13 -260 -15 -8 -1 102
-7 246 -13 244 -11 262 -13 289 -34 19 -15 42 -22 71 -22 24 0 44 -3 44 -6 0
-4 -12 -21 -28 -38 -15 -17 -33 -50 -41 -73 -12 -37 -12 -45 5 -79 30 -59 65
-79 137 -78 99 0 180 53 212 138 17 45 17 53 -10 119 -6 15 0 17 56 17 l62 0
-20 -22 c-63 -69 -78 -138 -43 -195 24 -39 43 -50 106 -58 125 -16 255 91 241
199 -3 23 -8 49 -12 59 -6 15 1 17 84 17 91 0 91 0 91 -26 0 -185 204 -305
425 -249 113 29 222 96 285 176 l36 46 18 -49 c23 -66 75 -121 144 -155 49
-24 69 -27 147 -27 119 -1 208 27 302 93 75 53 124 107 148 164 9 23 25 38 44
45 16 6 47 28 68 49 35 35 42 52 87 212 63 228 62 259 -7 301 -28 18 -51 20
-199 20 -190 0 -180 -6 -153 86 12 43 27 60 104 127 l89 78 31 113 c17 62 31
115 31 118 0 3 -10 8 -21 11 -20 5 -19 9 22 59 24 29 46 55 49 58 3 3 17 21
30 40 13 19 27 37 31 40 18 13 125 189 156 258 30 63 37 89 37 144 1 58 -2 70
-24 93 -68 73 -182 94 -406 74z m-2708 -240 c16 -17 55 -49 87 -70 53 -37 71
-59 47 -59 -5 0 -12 -11 -16 -25 -4 -17 -20 -32 -47 -45 -49 -24 -85 -25 -134
-5 l-36 15 5 73 c6 78 29 147 51 147 7 0 26 -14 43 -31z m2820 -30 c121 -31
111 -136 -28 -307 -103 -126 -157 -180 -189 -184 -16 -3 -29 -2 -29 1 0 3 28
38 62 76 82 93 118 152 118 191 0 56 -37 79 -142 90 -110 11 -276 -9 -848
-101 -566 -91 -790 -115 -1029 -114 -197 1 -273 9 -279 28 -4 11 3 12 29 7 19
-3 106 -9 194 -12 172 -7 386 9 636 47 74 11 154 22 179 25 25 2 110 16 190
30 80 14 197 32 260 41 80 12 108 19 95 25 -15 6 -12 7 10 3 17 -3 77 2 135
11 194 29 225 32 340 34 128 2 184 -4 206 -23 42 -34 54 -49 54 -67 0 -11 6
-20 13 -20 9 0 9 -2 0 -8 -14 -9 -36 -62 -29 -70 3 -3 9 3 13 13 3 10 14 26
24 36 41 41 70 107 67 151 -2 33 -7 43 -20 42 -10 -1 -16 3 -15 9 1 6 -16 17
-38 25 -77 27 -375 0 -730 -67 -60 -12 -127 -24 -147 -26 -20 -3 -70 -12 -110
-21 -153 -31 -224 -43 -251 -44 -16 0 -26 -4 -23 -9 4 -5 -12 -7 -36 -4 -26 3
-38 1 -31 -4 8 -6 -1 -9 -25 -9 -20 0 -86 -8 -147 -18 -227 -37 -337 -47 -574
-53 -204 -5 -243 -3 -239 8 4 11 33 13 149 11 236 -6 500 25 1019 118 536 96
522 94 720 124 155 23 155 23 283 25 65 0 138 -4 163 -10z m-2346 -79 c20 -14
25 -25 23 -56 -3 -43 -49 -142 -74 -157 -37 -23 -204 59 -193 94 2 10 7 31 9
49 2 18 5 33 7 34 2 1 35 16 73 34 76 35 110 35 155 2z m-343 -135 c11 -12 13
-26 8 -53 -4 -20 -7 -70 -6 -109 1 -40 0 -73 -2 -73 -2 0 -17 12 -33 26 -39
34 -72 51 -117 59 -49 9 -54 21 -26 52 29 32 138 113 151 113 5 0 16 -7 25
-15z m146 -65 c32 -28 63 -50 67 -50 9 0 60 -69 60 -81 0 -8 -160 -79 -178
-79 -2 0 0 19 3 43 5 29 0 69 -14 124 -12 45 -21 84 -21 87 0 17 31 0 83 -44z
m911 -441 c22 -8 48 -27 60 -42 19 -26 19 -30 6 -55 -8 -15 -38 -38 -65 -52
-44 -22 -65 -25 -190 -28 -89 -3 -143 -8 -147 -16 -17 -26 -8 -66 17 -78 14
-6 25 -14 25 -18 0 -4 -74 -7 -165 -7 -91 0 -165 3 -165 7 0 4 11 12 25 18 31
14 70 90 86 170 13 60 12 62 -11 82 -16 14 -21 23 -13 28 6 4 121 7 255 6 184
0 253 -4 282 -15z m1686 -407 c0 -5 -13 -23 -28 -40 l-29 -32 -1172 0 c-645 0
-1177 2 -1182 5 -5 4 -4 12 3 19 7 8 20 23 28 35 l14 21 1183 0 c651 0 1183
-4 1183 -8z m-1546 -150 c8 -14 -54 -72 -77 -72 -225 -2 -822 2 -826 6 -3 2 3
20 14 39 l18 35 433 0 c238 0 435 -4 438 -8z m498 -24 c102 -35 160 -113 159
-215 0 -121 -81 -233 -221 -306 -64 -34 -157 -63 -168 -53 -6 7 41 166 49 166
3 0 23 -27 43 -60 21 -33 39 -60 40 -60 2 0 -3 33 -10 73 -6 39 -10 74 -8 76
1 2 33 -13 70 -33 36 -20 68 -36 69 -34 2 2 -17 25 -41 52 -24 27 -42 52 -39
54 3 3 39 4 80 3 41 -1 75 0 75 2 0 3 -32 15 -71 28 -79 26 -80 25 39 59 39
11 72 23 72 25 0 2 -42 1 -92 -2 l-93 -5 85 56 c46 31 82 56 78 56 -4 0 -41
-14 -83 -31 -42 -17 -79 -28 -82 -25 -3 3 12 29 34 58 46 62 56 78 49 78 -3 0
-15 -10 -28 -22 -45 -44 -99 -88 -107 -88 -5 0 -3 25 6 56 22 88 11 93 -31 16
-22 -40 -42 -70 -45 -67 -2 3 -15 36 -27 73 l-22 67 -2 -45 c0 -25 -4 -62 -8
-83 l-7 -37 -55 49 c-30 27 -56 48 -58 46 -2 -2 11 -30 27 -64 36 -70 33 -72
-58 -45 -29 8 -56 13 -59 10 -6 -7 -11 -4 58 -47 l55 -34 -75 -8 c-109 -12
-115 -19 -25 -31 77 -11 78 -11 55 -26 -14 -9 -45 -24 -70 -35 -86 -36 -78
-45 17 -20 89 23 93 19 29 -41 -32 -30 -56 -57 -54 -59 2 -3 37 16 76 40 75
47 84 45 55 -8 -10 -18 -25 -50 -35 -72 l-19 -40 31 35 c17 19 43 50 57 68 14
17 29 32 34 32 5 0 9 -36 9 -80 l0 -80 -50 0 c-103 0 -213 63 -244 141 -45
112 9 260 127 348 81 60 120 77 242 105 29 7 129 -3 167 -16z m776 -13 c199
-91 171 -347 -53 -490 -81 -52 -147 -70 -255 -70 -83 1 -102 4 -145 27 -89 46
-125 106 -125 203 0 238 346 435 578 330z m-1598 -114 c0 -6 -5 -13 -11 -16
-5 -4 -14 -18 -19 -31 l-10 -24 -295 0 c-162 0 -295 3 -295 7 0 3 11 21 26 40
l25 33 290 0 c174 0 289 -4 289 -9z m686 -54 c21 13 22 13 17 -6 -4 -16 -1
-19 18 -14 18 5 21 3 16 -10 -5 -13 -1 -17 16 -18 l22 0 -23 -16 -24 -16 23
-12 c22 -12 22 -12 -6 -19 -22 -6 -25 -9 -15 -21 10 -12 9 -15 -9 -15 -14 0
-21 -6 -21 -20 0 -17 -5 -19 -25 -14 -19 5 -25 2 -25 -10 0 -18 -15 -21 -26
-5 -4 8 -9 8 -17 0 -16 -16 -27 -14 -27 5 0 15 -2 15 -26 -1 -25 -16 -26 -16
-19 4 5 15 2 21 -9 21 -19 0 -21 16 -4 26 9 6 5 10 -12 15 l-25 7 23 7 c22 7
31 25 12 25 -5 0 -10 5 -10 10 0 6 9 10 21 10 16 0 19 4 14 21 -6 18 -4 20 15
14 17 -5 23 -2 27 14 4 18 8 19 20 9 12 -10 17 -8 26 7 9 17 11 18 21 3 9 -14
12 -14 32 -1z m-1081 -143 c101 -47 66 -188 -60 -245 -116 -53 -239 22 -205
125 32 99 174 163 265 120z m379 2 c107 -44 81 -177 -46 -242 -104 -53 -218
-9 -218 84 0 18 5 43 11 54 18 33 61 78 76 78 7 0 13 4 13 9 0 11 57 29 98 30
18 1 48 -5 66 -13z"/>
<path d="M2418 2425 c-29 -16 -65 -95 -53 -115 9 -15 111 -8 145 10 12 6 29
28 37 48 14 35 14 37 -7 54 -27 22 -85 23 -122 3z"/>
<path d="M3844 1783 l-9 -82 -57 50 c-32 28 -58 48 -58 46 0 -3 13 -31 29 -64
16 -32 25 -59 21 -61 -5 -2 -37 4 -70 12 -71 18 -70 18 -70 9 0 -5 23 -21 50
-38 28 -16 50 -32 50 -36 0 -8 -63 -19 -112 -19 -69 0 -48 -18 29 -25 l77 -7
-25 -19 c-13 -10 -27 -19 -30 -19 -13 0 -100 -42 -97 -46 3 -2 37 3 77 12 41
8 75 13 78 10 2 -2 -23 -28 -56 -57 -33 -29 -59 -55 -56 -57 2 -2 38 16 79 41
42 25 76 43 76 41 0 -2 -13 -34 -29 -69 -17 -36 -26 -65 -20 -65 5 0 9 3 9 8
1 4 23 31 50 61 l50 54 1 -79 0 -79 28 73 c15 40 30 74 34 75 4 1 22 -23 42
-53 37 -57 40 -53 26 32 -4 27 -6 50 -4 52 3 3 35 -11 71 -30 37 -19 69 -34
71 -34 3 0 -8 15 -25 33 -16 17 -39 44 -52 58 l-22 25 85 -4 c47 -2 85 -2 85
0 0 3 -32 15 -70 28 -78 26 -77 30 20 54 95 24 94 35 -1 29 l-84 -6 40 33 c22
17 49 37 60 43 22 12 50 37 40 37 -3 0 -19 -7 -34 -15 -38 -19 -114 -45 -119
-40 -3 2 12 27 33 55 21 28 36 53 33 55 -2 2 -30 -17 -61 -42 -32 -25 -60 -44
-62 -41 -2 2 3 30 11 62 8 32 14 62 12 67 -2 6 -22 -23 -45 -63 -47 -81 -46
-81 -76 27 l-13 50 -10 -82z"/>
<path d="M3105 1648 c-47 -26 -65 -62 -56 -110 3 -19 103 -25 109 -7 2 5 10 9
17 9 11 0 23 17 30 43 2 4 4 9 5 12 7 14 4 31 -7 43 -17 18 -74 23 -98 10z"/>
<path d="M2032 1515 c-10 -23 -34 -36 -31 -17 5 27 -4 32 -14 8 -12 -27 -14
-28 -29 -12 -22 22 -31 20 -18 -3 15 -30 13 -33 -20 -26 -37 8 -38 0 -2 -19
l27 -15 -38 -1 c-40 0 -44 -20 -4 -20 20 -1 20 -2 -5 -16 -16 -8 -28 -17 -28
-20 0 -2 12 -1 28 2 l27 7 -20 -23 c-21 -25 -21 -25 31 -3 14 5 15 3 4 -16
-15 -29 -5 -39 12 -12 18 29 28 26 29 -6 l1 -28 10 28 c11 30 25 35 34 12 10
-25 22 -17 16 10 -4 24 -3 25 21 16 21 -8 25 -7 20 4 -3 8 -9 15 -14 15 -5 0
-9 4 -9 8 0 4 17 7 38 5 l37 -3 -30 14 c-27 13 -28 15 -10 21 11 4 29 11 40
16 18 8 18 9 -5 8 -41 -2 -43 0 -19 21 l24 20 -29 -10 c-37 -14 -44 -6 -20 22
20 23 3 17 -29 -10 -16 -14 -17 -13 -11 16 8 38 1 41 -14 7z"/>
<path d="M2371 1513 c-1 -36 -11 -42 -31 -18 -18 21 -24 11 -10 -15 12 -22 11
-22 -24 -16 -43 8 -46 2 -8 -18 l27 -15 -32 -1 c-40 0 -45 -20 -5 -20 l27 -1
-32 -14 c-18 -8 -33 -16 -33 -19 0 -3 15 -3 33 0 l32 5 -24 -20 c-25 -23 -13
-28 21 -10 18 10 20 9 15 -5 -19 -46 -18 -49 6 -21 l27 30 1 -30 1 -30 11 28
c11 28 37 37 37 13 0 -8 5 -18 11 -22 8 -5 10 3 7 25 -3 21 -1 30 6 27 52 -21
52 -21 32 2 -20 23 -18 25 29 23 l30 0 -27 10 c-33 13 -37 29 -7 29 12 0 17 4
14 11 -4 6 -14 8 -24 5 -9 -4 -3 6 14 20 31 28 29 29 -35 6 -12 -4 -11 -1 3
15 26 30 20 40 -9 12 l-26 -24 5 35 c5 32 5 34 -9 16 -8 -11 -14 -23 -14 -28
0 -19 -19 -6 -28 20 l-10 27 -1 -32z"/>
<path d="M4522 2023 c-59 -214 -101 -361 -107 -375 -12 -30 10 -20 62 26 105
95 150 242 101 336 -13 24 -28 46 -34 47 -6 2 -16 -13 -22 -34z"/>
<path d="M4381 1521 c-12 -45 -28 -102 -36 -126 -12 -42 -12 -45 5 -45 13 0
22 17 36 73 l19 72 5 -70 5 -70 38 -3 c20 -2 37 -1 37 1 0 2 -9 33 -20 67 -11
34 -20 69 -20 77 0 8 28 -21 63 -66 56 -72 65 -80 96 -81 l35 0 -30 32 c-16
17 -70 74 -120 126 l-91 95 -22 -82z"/>
<path d="M2045 1124 c-86 -24 -219 -28 -334 -10 -57 9 -105 15 -106 13 -5 -7
-130 -192 -131 -195 0 -1 -33 3 -71 10 -60 10 -85 9 -165 -5 -115 -21 -187
-21 -212 -2 -11 8 -25 15 -30 15 -19 0 -136 -120 -136 -139 0 -10 11 -28 25
-41 32 -30 32 -63 1 -167 -34 -112 -66 -170 -125 -226 -28 -27 -51 -54 -51
-61 0 -13 107 -166 116 -166 2 0 23 14 46 30 46 34 47 34 190 3 62 -13 93 -14
153 -7 l75 10 0 -93 c0 -51 2 -93 4 -93 3 0 33 13 68 30 86 39 170 47 268 25
41 -9 84 -18 95 -18 11 -1 23 -6 26 -11 4 -4 40 2 80 15 63 21 94 24 209 24
115 -1 143 -4 186 -22 l51 -22 48 77 c27 42 55 83 63 90 21 17 126 15 186 -3
27 -8 52 -15 56 -15 12 0 100 139 100 157 0 9 -9 27 -21 39 l-21 22 69 7 c37
4 76 9 86 11 23 7 22 -8 -3 -24 -13 -8 -20 -23 -20 -45 0 -33 34 -174 44 -184
3 -4 35 9 71 27 56 28 71 32 111 26 26 -3 67 -18 91 -31 24 -14 43 -22 43 -18
1 4 11 21 24 37 l24 29 32 -23 c43 -31 167 -40 220 -17 34 15 36 15 56 -10
l21 -26 45 32 c49 35 38 35 190 4 119 -23 220 -10 318 43 l68 37 32 -26 c47
-40 101 -52 240 -52 116 0 129 2 185 28 33 16 70 38 83 49 l22 22 28 -27 c53
-51 116 -71 240 -75 99 -4 121 -1 175 18 83 30 139 70 186 133 68 90 86 203
46 280 -13 26 -12 31 15 73 39 62 50 123 40 212 -4 40 -10 75 -13 78 -2 3 -34
-11 -69 -31 -72 -39 -90 -42 -141 -20 -46 19 -159 19 -222 0 -27 -8 -67 -28
-91 -44 l-42 -31 -7 65 c-3 36 -9 65 -12 65 -3 0 -37 -17 -75 -37 -68 -35 -72
-36 -112 -23 -22 7 -74 15 -113 17 -91 6 -165 -15 -227 -62 l-46 -35 -16 25
c-24 37 -78 64 -154 76 -56 10 -86 9 -165 -5 -119 -20 -175 -20 -201 -1 -29
22 -45 18 -86 -22 -33 -32 -41 -36 -56 -25 -61 44 -80 47 -302 47 -118 0 -227
4 -241 8 -22 7 -30 4 -48 -19 l-21 -27 -53 16 c-83 25 -140 30 -219 17 -112
-17 -113 -17 -110 3 3 18 -54 184 -69 201 -4 5 -40 0 -81 -10 -79 -20 -218
-22 -277 -4 -28 8 -36 7 -46 -7 -11 -15 -13 -15 -19 5 -8 25 -20 25 -91 6z
m66 -86 l21 -42 30 36 c26 34 31 36 61 27 44 -12 144 -11 228 2 38 7 71 10 74
7 2 -2 11 -20 20 -41 l15 -36 -63 -36 c-87 -52 -153 -101 -291 -221 -80 -69
-82 -78 -47 -169 10 -27 36 -97 57 -155 27 -74 48 -115 71 -139 l34 -34 -29
-46 c-32 -52 -29 -51 -157 -31 -87 13 -189 8 -273 -14 -59 -16 -59 -16 -64 43
-4 44 -22 50 -38 12 -22 -54 -42 -64 -100 -52 -73 16 -220 14 -268 -3 -27 -10
-44 -11 -48 -5 -8 14 6 109 16 109 9 0 187 132 231 172 15 12 61 52 103 88 53
45 76 71 76 87 0 25 -25 97 -77 223 -47 112 -57 127 -93 135 -16 4 -30 11 -30
15 0 5 14 30 31 55 29 43 34 46 63 40 71 -14 301 -15 361 -2 33 8 61 15 62 16
2 0 12 -18 24 -41z m-1048 -170 c28 -8 60 -6 126 6 101 18 189 20 242 6 51
-14 91 -60 93 -107 l1 -38 -50 -6 c-27 -4 -70 -15 -94 -25 l-44 -17 24 -20
c26 -21 71 -17 99 8 25 22 30 19 30 -20 0 -86 -63 -154 -151 -163 -45 -4 -55
-1 -103 32 -32 22 -59 34 -69 30 -31 -12 -77 -184 -49 -184 4 0 16 -3 28 -6
14 -4 31 3 52 21 27 23 32 34 32 71 0 24 2 44 5 44 3 0 17 -8 32 -17 33 -22
114 -21 167 1 22 9 41 14 44 11 3 -2 -3 -26 -13 -52 -22 -59 -80 -117 -143
-145 -66 -28 -198 -35 -278 -14 -81 21 -162 21 -186 0 -15 -14 -20 -15 -33 -4
-38 31 -38 49 -1 84 92 86 182 399 130 451 -15 15 -14 18 12 46 18 19 34 27
44 23 8 -3 32 -11 53 -16z m1485 6 c13 -14 29 -15 91 -10 265 23 302 19 358
-41 29 -30 33 -41 33 -89 0 -147 -104 -233 -293 -242 -93 -4 -99 -6 -108 -29
-14 -37 -11 -89 6 -103 20 -16 18 -30 -6 -59 -19 -24 -21 -24 -90 -11 -67 13
-146 7 -200 -15 -13 -5 -18 2 -24 31 -6 32 -3 40 19 58 44 36 114 203 147 350
10 46 9 58 -4 86 -16 31 -16 33 11 60 32 34 38 35 60 14z m621 0 c8 -3 77 1
153 8 109 9 148 9 184 0 109 -29 151 -110 105 -200 -24 -47 -45 -66 -104 -92
-35 -16 -46 -25 -38 -34 5 -6 14 -34 19 -61 6 -32 10 -40 11 -22 1 21 6 27 23
27 36 0 58 -28 58 -74 l0 -41 23 35 c34 50 89 221 95 296 3 39 0 75 -8 93 -11
28 -10 32 16 54 27 23 29 23 67 9 36 -15 49 -14 141 1 139 24 226 22 277 -4
42 -21 69 -65 69 -114 0 -23 -4 -25 -41 -25 -46 0 -139 -29 -139 -44 0 -14 33
-35 56 -36 12 0 33 9 47 20 14 11 28 20 31 20 3 0 6 -18 6 -41 0 -92 -64 -154
-160 -154 -30 0 -64 4 -75 9 -18 8 -18 7 -5 -7 35 -36 167 -38 209 -4 11 9 15
9 19 -1 2 -8 15 -2 39 18 19 17 48 33 64 37 l29 5 -30 35 c-51 58 -37 142 37
217 79 81 187 104 308 66 l73 -23 44 22 c24 11 47 21 51 21 15 0 6 -73 -13
-108 -28 -54 -41 -67 -83 -90 l-38 -20 35 -21 c49 -30 66 -62 66 -121 0 -88
-83 -190 -190 -232 -74 -29 -233 -32 -300 -5 -57 23 -100 64 -100 94 0 32 -7
29 -47 -17 -54 -61 -126 -92 -231 -97 -61 -4 -105 0 -148 11 -79 20 -160 21
-180 1 -21 -21 -29 -19 -48 10 l-16 25 -41 -27 c-31 -20 -52 -26 -97 -27 -118
0 -157 49 -146 184 6 70 5 80 -9 80 -11 0 -21 -17 -32 -52 -19 -65 -19 -88 0
-115 14 -20 13 -24 -12 -55 -15 -18 -28 -34 -29 -36 -1 -2 -16 4 -33 12 -40
21 -152 21 -193 0 -34 -18 -43 -12 -52 31 -5 25 -1 35 22 57 44 41 97 152 126
260 30 112 32 146 11 174 -19 25 -19 27 6 58 18 23 25 25 62 20 23 -3 48 -8
56 -10z m2070 -4 c57 -22 97 -20 140 7 31 20 44 2 36 -47 -8 -50 -53 -110
-102 -136 l-43 -22 35 -21 c19 -11 44 -35 55 -53 51 -81 -22 -223 -149 -287
-121 -62 -342 -45 -406 31 -57 68 -9 179 89 204 27 6 27 7 8 28 -48 52 -51
100 -12 176 59 115 218 169 349 120z m-3612 -75 c55 -132 73 -180 73 -195 0
-9 -21 -34 -47 -55 -108 -91 -112 -92 -88 -25 19 54 19 80 0 80 -8 0 -15 9
-15 20 0 13 7 20 20 20 17 0 20 7 20 48 -1 45 -9 95 -25 155 -7 25 -5 26 15
19 13 -5 31 -30 47 -67z m776 -153 c-30 -105 -91 -236 -113 -240 -11 -2 -25
27 -52 105 l-36 108 21 20 c12 12 55 48 96 82 l75 61 17 -23 c18 -22 17 -25
-8 -113z"/>
<path d="M2015 1039 c-22 -5 -114 -8 -205 -7 -156 2 -167 1 -187 -19 l-21 -21
24 -11 c14 -6 27 -18 30 -26 4 -8 10 -12 15 -9 5 3 9 -2 9 -10 0 -8 6 -30 14
-48 8 -18 20 -48 26 -65 7 -18 16 -30 20 -28 5 3 12 0 16 -6 5 -8 3 -9 -6 -4
-9 6 -12 4 -8 -6 27 -73 71 -210 67 -212 -39 -28 -177 -147 -232 -199 -21 -21
-43 -38 -48 -38 -6 0 -7 -5 -3 -12 4 -6 3 -8 -4 -4 -8 5 -54 -25 -82 -54 -3
-3 -17 -11 -32 -19 -29 -15 -40 -33 -33 -54 4 -9 33 -11 115 -9 65 3 130 -1
157 -7 44 -12 47 -11 71 15 l25 27 -26 19 c-59 43 -37 143 46 205 67 50 72 50
92 -3 31 -81 17 -222 -21 -207 -11 4 -14 -5 -14 -38 0 -24 4 -39 8 -34 4 6 16
11 27 13 11 2 42 7 69 11 27 4 103 5 170 1 66 -4 128 -5 136 -3 13 4 13 4 0
-6 -13 -9 -13 -11 1 -11 8 0 23 16 32 35 9 19 13 35 9 35 -4 0 -19 18 -32 40
-14 22 -29 40 -33 40 -5 0 -6 4 -2 10 3 5 -12 58 -34 117 -21 59 -48 137 -60
173 l-20 65 37 33 c20 19 68 61 106 95 37 34 96 81 129 104 33 24 63 46 66 50
3 5 23 16 44 25 28 14 37 24 37 43 0 26 -15 34 -23 13 -3 -8 -6 -8 -6 -2 -1 7
-20 8 -63 2 -35 -5 -99 -7 -144 -5 -70 4 -82 2 -92 -14 -7 -11 -8 -20 -2 -24
5 -3 14 -22 19 -42 8 -29 7 -43 -8 -72 -26 -49 -119 -137 -132 -124 -6 6 -13
53 -16 106 -6 92 -5 96 20 121 17 17 24 32 20 46 -6 22 -8 22 -68 9z"/>
<path d="M1758 390 c-57 -59 -64 -99 -23 -126 29 -19 93 -14 107 8 20 33 1
168 -25 168 -6 0 -32 -22 -59 -50z"/>
<path d="M1210 853 c-41 -8 -108 -12 -148 -11 l-73 3 -3 -105 c-2 -77 -8 -122
-24 -169 -12 -36 -20 -74 -16 -85 3 -14 2 -17 -4 -8 -6 9 -12 1 -22 -26 -7
-22 -29 -59 -50 -82 -38 -42 -44 -78 -11 -64 35 15 71 15 153 0 88 -17 258
-22 258 -8 0 4 10 8 21 9 12 1 31 11 43 21 11 10 29 22 38 25 9 3 25 21 34 39
9 18 20 35 24 38 5 3 -32 5 -80 5 -83 0 -89 -1 -95 -22 -3 -12 -17 -36 -31
-53 -24 -28 -31 -31 -78 -28 -45 3 -52 6 -64 31 -12 24 -12 36 2 77 9 27 16
54 16 60 0 6 12 27 26 46 34 44 64 44 117 -1 46 -40 88 -45 140 -19 29 16 65
48 68 63 10 44 7 48 -27 38 -27 -8 -39 -6 -69 12 -43 25 -110 38 -127 23 -16
-13 -87 -52 -94 -52 -6 0 3 32 23 80 45 108 67 131 128 133 45 1 56 -11 57
-60 l0 -40 42 14 c22 7 52 15 66 18 47 9 54 19 39 51 -10 21 -28 34 -64 46
-58 19 -110 20 -215 1z"/>
<path d="M2690 844 c-68 -9 -106 -10 -134 -3 -21 6 -40 8 -43 5 -3 -2 -6 -47
-6 -99 -1 -61 -7 -100 -15 -110 -7 -9 -14 -31 -15 -50 -1 -20 -4 -33 -6 -31
-2 2 -15 -29 -29 -69 -13 -39 -29 -73 -33 -75 -5 -2 -9 -9 -9 -16 0 -8 -13
-29 -30 -47 -16 -19 -30 -36 -30 -39 0 -3 59 -5 132 -4 132 1 154 7 130 37
-12 15 -17 47 -9 67 14 40 15 58 0 53 -8 -3 -4 6 10 21 22 24 31 26 102 26 92
0 173 22 218 58 17 15 34 30 35 35 2 4 9 13 16 20 18 17 36 75 36 111 0 40
-33 94 -62 101 -128 29 -119 28 -258 9z m145 -40 c21 -22 17 -78 -11 -140 -35
-74 -61 -95 -125 -97 -47 -2 -54 1 -57 18 -4 31 36 145 64 182 39 52 97 68
129 37z"/>
<path d="M2743 766 c-19 -16 -38 -49 -53 -95 -13 -39 -22 -72 -19 -75 10 -11
81 13 98 33 25 29 53 118 46 142 -9 26 -38 24 -72 -5z"/>
<path d="M3340 859 c-47 -4 -93 -10 -103 -13 -10 -2 -48 0 -84 5 -75 11 -96 2
-75 -31 6 -11 12 -31 12 -45 0 -43 -30 -177 -51 -232 -12 -29 -18 -57 -13 -64
4 -7 3 -9 -4 -5 -6 3 -14 -4 -18 -16 -8 -26 -64 -111 -76 -116 -7 -3 -12 -42
-5 -42 1 0 25 6 54 14 43 12 60 12 110 0 60 -14 93 -11 93 9 0 7 -5 30 -10 52
-7 31 -5 55 11 108 19 66 21 67 54 67 43 0 48 -16 41 -124 -5 -69 -4 -85 9
-90 8 -3 15 -13 15 -22 0 -13 6 -15 28 -10 19 5 23 4 13 -3 -11 -7 -6 -11 21
-16 45 -9 84 -3 81 12 -1 6 6 9 15 6 30 -8 102 76 102 119 0 23 -16 57 -22 48
-2 -3 -10 -18 -18 -35 -26 -49 -36 -40 -64 57 -14 49 -21 59 -44 64 -54 11
-59 14 -42 23 8 5 38 12 65 16 71 10 109 31 141 77 35 49 38 104 9 135 -52 54
-107 66 -245 52z m68 -51 c20 -20 14 -95 -10 -132 -32 -49 -67 -66 -132 -66
-50 0 -55 2 -47 18 21 39 41 91 41 106 0 8 16 31 35 51 38 37 89 47 113 23z"/>
<path d="M3975 855 c-34 -7 -101 -12 -153 -11 -95 3 -115 -5 -96 -35 8 -14 6
-148 -4 -163 -6 -11 -8 -19 -18 -78 -3 -21 -10 -38 -15 -38 -5 0 -9 -6 -9 -13
0 -7 -9 -32 -20 -55 -11 -22 -20 -45 -20 -49 0 -5 -18 -29 -39 -53 -37 -42
-43 -60 -20 -60 6 0 8 3 6 8 -9 14 108 12 185 -4 92 -18 221 -21 226 -5 2 6 8
8 13 5 11 -6 81 34 120 69 14 13 29 36 33 51 6 25 5 26 -15 16 -12 -7 -50 -10
-86 -8 -61 3 -66 1 -74 -19 -6 -15 -5 -23 3 -23 6 0 -6 -13 -27 -30 -29 -23
-48 -30 -81 -30 -81 0 -91 41 -42 170 20 52 30 67 56 77 28 11 33 10 60 -15
44 -40 68 -52 103 -52 45 0 98 28 105 56 3 13 10 22 14 19 4 -3 10 5 14 18 10
37 6 44 -9 17 -11 -19 -14 -21 -15 -8 0 11 -5 15 -15 12 -21 -9 -61 3 -81 24
-19 18 -110 23 -122 6 -11 -14 -50 -34 -68 -34 -9 0 -13 6 -10 13 2 6 10 31
17 54 6 23 17 48 25 54 8 6 14 17 14 24 0 8 16 27 36 43 31 26 40 29 67 21 42
-12 47 -19 49 -66 1 -37 3 -41 19 -32 10 5 26 9 36 9 10 0 31 7 47 15 15 8 35
15 42 15 8 0 14 7 14 15 0 9 -6 12 -17 8 -11 -4 -14 -3 -9 5 8 13 -15 42 -33
42 -6 0 -11 4 -11 8 0 5 -6 9 -12 10 -76 10 -133 9 -183 -3z"/>
<path d="M4558 865 c-3 -3 -23 -7 -46 -9 -44 -4 -136 -52 -127 -66 3 -6 0 -7
-8 -4 -10 3 -20 -6 -28 -25 -8 -17 -17 -31 -21 -31 -10 0 -21 -84 -14 -107 7
-22 77 -65 132 -82 124 -38 155 -67 139 -128 -8 -32 -61 -83 -86 -83 -10 0
-20 -6 -22 -12 -4 -10 -6 -10 -6 0 -1 7 -14 12 -32 12 -40 0 -78 40 -71 76 2
14 20 37 38 52 19 15 34 30 34 33 0 11 -51 29 -83 29 -48 0 -115 -47 -127 -88
-25 -93 79 -151 252 -139 113 8 228 69 244 131 3 14 10 24 14 21 8 -5 24 31
34 75 7 33 -24 84 -65 109 -17 10 -61 29 -97 41 -37 13 -77 29 -89 37 -12 8
-27 12 -32 8 -6 -3 -8 0 -5 8 3 8 -2 19 -10 26 -14 12 -14 16 -1 42 9 16 26
31 40 35 30 7 81 -9 77 -25 -1 -6 5 -14 13 -17 8 -3 12 -10 9 -15 -8 -14 22
-56 45 -64 46 -14 151 74 151 126 0 16 -4 17 -31 7 -35 -12 -112 -4 -163 17
-38 16 -50 18 -58 10z"/>
<path d="M3894 552 c-16 -10 -54 -117 -54 -151 0 -38 38 -49 80 -25 36 22 47
48 45 103 -2 33 -9 49 -26 62 -27 21 -30 22 -45 11z"/>
<path d="M5140 864 c-104 -16 -131 -26 -175 -70 -40 -40 -48 -55 -44 -80 0 -4
-4 -10 -10 -13 -6 -4 -13 -21 -17 -37 -5 -25 0 -36 25 -61 17 -17 50 -38 73
-46 24 -8 64 -22 90 -32 25 -9 58 -27 72 -40 23 -21 25 -29 18 -61 -13 -63
-73 -99 -159 -95 -69 3 -73 102 -5 140 31 18 2 46 -49 47 -50 2 -83 -13 -119
-51 -39 -42 -28 -135 16 -135 8 0 14 -4 14 -8 0 -16 90 -29 183 -28 74 2 102
7 140 25 61 29 140 108 134 132 -3 13 0 16 11 12 10 -4 13 -2 8 5 -4 6 -1 20
5 30 29 46 -29 127 -112 156 -101 34 -177 76 -183 99 -8 29 24 71 57 75 32 4
67 -14 67 -34 0 -8 4 -12 10 -9 6 3 7 -1 4 -9 -7 -17 46 -76 68 -76 25 0 99
54 93 68 -2 7 -1 11 4 8 12 -8 27 13 35 47 6 26 -6 38 -19 17 -10 -17 -92 -11
-152 10 -32 11 -57 19 -58 19 0 -1 -11 -3 -25 -5z"/>
</g>
</svg>
