<?xml version="1.0" standalone="no"?>
<!DOCTYPE svg PUBLIC "-//W3C//DTD SVG 20010904//EN"
 "http://www.w3.org/TR/2001/REC-SVG-20010904/DTD/svg10.dtd">
<svg version="1.0" xmlns="http://www.w3.org/2000/svg"
 width="300.000000pt" height="214.000000pt" viewBox="0 0 300.000000 214.000000"
 preserveAspectRatio="xMidYMid meet">
<metadata>
Created by potrace 1.10, written by Peter Selinger 2001-2011
</metadata>
<g transform="translate(0.000000,214.000000) scale(0.100000,-0.100000)"
fill="#ffffff" stroke="none">
<path d="M321 2126 c-1 -11 -11 -48 -22 -82 -20 -60 -21 -65 -5 -104 23 -57
24 -482 1 -556 -14 -45 -14 -54 2 -111 10 -35 20 -63 23 -63 3 0 16 18 30 41
31 50 76 79 123 79 l36 0 6 55 c6 44 4 60 -8 73 -9 9 -19 40 -22 67 l-7 50 39
14 c21 7 52 24 70 37 34 26 37 25 47 -23 12 -52 60 -110 103 -122 64 -18 141
15 194 83 24 30 39 22 39 -21 0 -29 2 -29 50 3 31 21 48 25 75 21 31 -5 36 -3
41 20 6 24 8 24 17 7 5 -11 11 -20 12 -22 2 -2 18 6 36 17 41 25 66 26 90 5
17 -16 19 -15 29 10 5 15 10 33 10 41 0 33 20 22 26 -14 l6 -39 32 19 c34 21
108 25 151 9 24 -9 27 -7 45 33 26 56 25 72 -5 85 -28 13 -31 34 -13 93 11 38
28 53 28 25 0 -8 14 -26 32 -41 24 -20 39 -25 60 -21 25 5 28 3 28 -19 0 -13
-11 -35 -25 -48 l-26 -23 22 -52 c18 -44 24 -50 40 -42 28 15 80 11 127 -10
33 -15 42 -16 42 -5 0 29 20 24 42 -9 23 -33 25 -34 36 -15 16 24 45 18 83
-18 20 -18 28 -21 32 -11 4 9 8 10 14 3 4 -6 29 -11 55 -10 41 0 52 -5 85 -37
33 -32 40 -35 48 -22 16 25 64 6 122 -49 29 -28 53 -45 53 -38 0 24 49 9 91
-27 67 -59 91 -72 125 -72 74 0 121 112 111 267 -10 167 -54 248 -130 241
l-40 -4 6 66 c3 36 11 78 18 93 9 21 9 39 -1 87 -7 33 -15 60 -18 60 -3 0 -16
-10 -29 -22 -26 -24 -77 -27 -120 -5 -23 11 -32 12 -53 1 -33 -18 -94 -17
-130 1 l-29 15 -10 -37 c-14 -51 -14 -64 4 -101 12 -22 17 -68 18 -161 2 -72
0 -131 -3 -131 -3 0 -16 53 -27 118 -33 181 -34 190 -23 197 16 10 12 45 -11
81 -20 32 -21 33 -44 18 -24 -16 -93 -16 -140 0 -28 10 -65 -56 -47 -85 20
-31 15 -56 -13 -63 -32 -8 -65 -61 -65 -103 0 -37 16 -85 33 -95 9 -5 8 -11
-4 -23 -27 -28 -49 11 -56 98 -5 70 -4 75 15 81 48 16 69 76 64 179 l-2 38
-31 -16 c-25 -14 -49 -15 -128 -10 -65 5 -105 4 -118 -4 -17 -8 -22 -7 -27 5
-4 9 -11 12 -18 7 -7 -4 -60 -9 -118 -10 -58 -1 -116 -4 -130 -6 -14 -2 -42 3
-62 10 -22 7 -38 8 -38 3 0 -13 -66 -13 -90 0 -14 8 -19 5 -25 -13 l-8 -22 -4
23 c-5 26 -2 26 -46 7 -28 -12 -47 -13 -88 -5 -55 11 -69 5 -69 -32 0 -26 -15
-30 -35 -8 -27 30 -98 53 -139 46 -40 -8 -90 -46 -117 -90 l-18 -30 -10 26
c-13 36 -65 76 -108 84 -33 6 -57 2 -146 -23 -13 -4 -23 7 -41 48 -14 30 -25
45 -25 35z m24 -75 c9 -29 35 -33 85 -16 55 20 105 19 140 -2 34 -20 70 -81
70 -119 0 -25 5 -19 33 35 40 81 73 106 136 106 66 0 120 -37 155 -106 67
-135 -1 -352 -128 -410 -57 -26 -89 -24 -127 8 -38 33 -59 79 -69 153 -5 42
-9 50 -15 35 -16 -39 -69 -85 -118 -101 l-49 -16 7 -72 c4 -39 13 -78 21 -87
9 -10 12 -27 8 -47 -5 -26 -11 -32 -33 -32 -34 0 -84 -31 -113 -70 l-23 -31
-10 32 c-9 25 -8 44 3 83 21 75 22 506 1 561 -11 30 -12 50 -5 78 11 41 21 47
31 18z m1605 -26 c0 -31 -37 -84 -66 -95 -26 -10 -26 -11 -22 -104 3 -67 9
-101 21 -120 22 -32 14 -71 -11 -61 -45 19 -89 26 -119 22 -26 -5 -35 -2 -44
14 -8 16 -7 25 7 40 22 24 30 116 16 176 -5 23 -7 44 -3 46 3 2 0 2 -7 0 -8
-1 -23 -3 -33 -3 -16 0 -19 -5 -14 -20 5 -14 2 -20 -9 -20 -10 0 -16 9 -16 25
0 31 36 51 74 41 26 -6 26 -6 26 -118 0 -88 -3 -115 -16 -129 -24 -26 -9 -39
47 -39 28 0 59 -5 71 -11 29 -15 35 -2 15 32 -13 24 -17 54 -17 135 0 96 1
104 19 104 26 0 61 46 61 81 0 27 -2 28 -24 18 -17 -8 -42 -8 -88 -1 -109 19
-186 -10 -189 -72 -2 -37 3 -70 12 -88 11 -21 59 -24 77 -6 7 7 12 8 12 2 0
-39 -61 -44 -96 -8 -22 21 -25 32 -22 70 3 39 2 43 -11 27 -53 -69 -76 -210
-38 -238 14 -10 16 -18 8 -39 -9 -23 -13 -25 -36 -16 -39 15 -107 12 -131 -5
-12 -8 -24 -11 -28 -8 -11 12 -6 46 9 63 33 37 30 85 -9 163 -47 94 -64 116
-75 99 -24 -39 -18 -261 8 -270 14 -5 14 -13 1 -48 -8 -21 -14 -24 -22 -16
-17 17 -38 15 -80 -6 -36 -19 -36 -19 -47 4 -7 17 -6 25 5 34 24 21 16 37 -42
96 l-57 56 7 -63 c5 -48 12 -69 29 -84 15 -14 21 -29 19 -47 -3 -24 -6 -27
-32 -21 -20 3 -41 -1 -64 -15 l-35 -20 -9 28 c-8 22 -7 31 6 44 25 25 25 300
0 338 -9 14 -15 34 -12 44 4 17 15 19 89 19 75 0 85 -2 89 -19 3 -11 1 -26 -5
-32 -13 -16 -1 -39 46 -84 l37 -35 -8 40 c-7 43 -21 76 -37 86 -5 4 -6 15 -3
25 5 17 17 19 146 18 90 -1 145 -5 154 -13 10 -9 15 -8 19 2 6 15 122 18 144
4 7 -4 22 -3 34 4 15 8 54 9 123 5 60 -4 107 -3 116 3 17 12 30 -3 30 -34z
m142 18 c20 -3 51 0 70 6 28 10 35 9 45 -6 8 -10 10 -25 6 -37 -4 -12 -6 -44
-5 -72 3 -59 44 -266 62 -309 l12 -30 11 25 c5 14 10 93 11 175 0 122 -3 156
-17 184 -22 45 -14 85 17 74 20 -7 41 -8 141 -3 22 1 56 -2 76 -7 27 -8 45 -7
69 3 18 8 33 14 35 14 11 0 11 -64 0 -96 -9 -24 -14 -79 -14 -144 0 -79 3 -98
10 -79 13 35 49 51 80 36 72 -36 103 -282 48 -389 -36 -71 -75 -68 -171 12
-49 41 -67 50 -99 50 -21 0 -39 4 -39 10 0 5 -19 23 -42 40 -29 22 -52 30 -82
30 -29 0 -54 9 -86 31 -35 24 -52 29 -77 26 -26 -5 -33 -2 -38 14 -8 23 -21
25 -29 3 -6 -15 -9 -15 -29 3 -29 27 -65 37 -82 23 -10 -8 -17 -6 -28 10 -14
20 -13 25 9 58 26 38 40 79 30 89 -3 4 -6 -1 -6 -10 0 -10 -4 -17 -9 -17 -16
0 -41 43 -41 71 0 35 36 79 65 79 27 0 38 36 24 84 -12 40 -2 70 19 61 10 -4
34 -9 54 -12z m-251 -19 c41 -4 66 -11 65 -18 -5 -27 -28 -56 -46 -56 -13 0
-22 -9 -26 -25 -10 -39 3 -204 16 -221 16 -19 6 -30 -11 -12 -7 8 -26 12 -44
10 -18 -2 -36 1 -39 7 -4 6 -3 11 2 11 6 0 11 51 11 118 1 90 -2 122 -12 130
-20 17 -97 25 -97 10 0 -6 -2 -9 -5 -6 -10 10 8 40 29 48 26 11 71 12 157 4z
m-133 -130 c-2 -10 -12 -20 -23 -22 -16 -3 -18 -1 -7 9 6 7 12 22 12 33 0 14
3 17 11 9 6 -6 9 -19 7 -29z m-357 -27 c35 -68 41 -98 23 -125 -10 -15 -23
-22 -37 -20 -21 3 -22 9 -25 101 -3 108 3 115 39 44z m-211 -175 c-15 -5 -40
17 -40 36 0 12 6 10 26 -9 14 -13 20 -25 14 -27z"/>
<path d="M326 2014 c-4 -13 -1 -34 6 -47 19 -32 18 -537 0 -589 -20 -56 -6
-63 40 -24 23 20 54 36 72 38 37 4 46 33 21 71 -12 18 -15 44 -13 97 l3 72 49
18 c90 35 126 90 127 198 1 76 -11 115 -48 154 -35 36 -82 45 -133 24 -50 -20
-84 -20 -103 -1 -13 13 -16 11 -21 -11z m254 -30 c23 -23 25 -31 25 -128 0
-139 -4 -144 -155 -216 -20 -10 -22 -108 -3 -170 17 -59 17 -57 -14 -65 -15
-3 -40 -16 -55 -27 -16 -11 -31 -19 -32 -17 -2 2 3 45 11 94 13 87 13 420 0
470 -3 11 -9 34 -12 51 -7 29 -6 30 27 26 19 -2 49 1 68 7 51 15 111 4 140
-25z"/>
<path d="M454 1973 c-26 -40 -35 -270 -10 -279 58 -22 106 49 106 159 0 125
-50 188 -96 120z m60 -5 c21 -30 22 -187 1 -227 -16 -31 -54 -47 -68 -28 -14
20 0 212 18 246 19 37 29 39 49 9z"/>
<path d="M471 1933 c-12 -43 -15 -213 -3 -213 32 1 52 51 52 135 0 106 -29
151 -49 78z m20 -163 c-8 -20 -10 -11 -10 46 -1 39 2 74 7 78 11 12 14 -97 3
-124z"/>
<path d="M731 2011 c-96 -90 -110 -340 -24 -441 25 -30 30 -32 75 -28 62 6
110 44 152 118 29 52 31 61 31 161 0 95 -2 109 -24 141 -57 82 -150 105 -210
49z m127 5 c71 -37 102 -104 97 -214 -2 -57 -9 -85 -31 -130 -17 -31 -36 -57
-44 -57 -9 0 -13 6 -10 15 3 8 5 85 5 170 0 145 -2 157 -23 187 -13 19 -29 30
-40 28 -9 -2 -22 -4 -29 -4 -20 -2 -34 -63 -40 -176 -9 -179 24 -290 77 -257
11 7 20 8 20 3 0 -14 -67 -33 -90 -26 -12 4 -33 25 -47 47 -23 34 -28 53 -31
130 -7 138 25 249 80 275 53 26 70 28 106 9z m-11 -47 c16 -33 28 -201 19
-272 -5 -40 -15 -67 -33 -88 -26 -30 -26 -30 -46 -11 -28 29 -43 170 -29 285
6 49 17 95 23 103 18 22 52 13 66 -17z m23 -368 c0 -6 -4 -13 -10 -16 -5 -3
-10 1 -10 9 0 9 5 16 10 16 6 0 10 -4 10 -9z"/>
<path d="M788 1968 c-19 -33 -18 -314 1 -347 l13 -23 22 21 c20 20 21 31 21
174 0 148 -9 197 -35 197 -5 0 -15 -10 -22 -22z m37 -82 c9 -54 3 -242 -7
-252 -13 -13 -17 0 -24 82 -7 88 2 214 16 214 5 0 12 -20 15 -44z"/>
<path d="M1573 2042 c-58 -3 -58 -4 -42 -31 14 -21 5 -78 -15 -106 -13 -18
-15 -16 -36 25 -14 28 -20 54 -17 74 l5 31 -135 2 c-74 1 -133 -1 -131 -5 28
-53 39 -90 36 -132 l-3 -48 -53 61 c-47 52 -53 64 -48 91 l6 31 -75 0 c-41 1
-75 -3 -75 -7 0 -5 8 -21 18 -35 26 -41 25 -296 -1 -337 -14 -20 -16 -31 -8
-39 8 -8 14 -8 23 1 7 7 27 12 44 12 38 0 54 18 31 35 -25 18 -37 61 -37 135
0 38 -4 71 -9 74 -5 3 -12 32 -16 63 -4 32 -11 63 -16 69 -6 7 7 10 41 10 48
-1 51 -2 59 -34 10 -33 108 -149 123 -145 9 3 9 4 13 -52 1 -22 7 -51 12 -65
9 -21 7 -26 -11 -32 -38 -11 -46 -8 -46 15 0 14 -18 42 -45 70 -25 26 -45 52
-45 57 0 6 -5 10 -10 10 -6 0 -17 14 -24 31 -9 22 -15 27 -19 16 -6 -15 39
-76 86 -116 42 -36 51 -58 33 -86 -19 -28 -12 -37 21 -24 13 5 40 9 59 9 38 0
41 8 18 52 -13 26 -15 53 -12 142 3 61 9 120 13 130 6 13 5 17 -3 12 -6 -4
-14 -23 -18 -44 l-8 -37 -7 30 c-3 17 -10 38 -14 48 -6 13 -2 17 16 17 60 0
80 -19 148 -143 28 -50 28 -125 1 -160 -23 -29 -12 -44 21 -26 14 7 43 9 80 5
62 -7 68 -3 44 28 -39 51 -3 201 65 271 16 17 26 35 22 40 -4 6 -31 9 -59 7z
m-126 -53 c0 -22 5 -45 12 -52 6 -6 11 -19 11 -29 0 -12 10 -20 30 -24 25 -5
28 -9 20 -25 -14 -25 -12 -84 3 -122 l14 -32 -58 3 c-57 4 -57 4 -50 30 17 60
-9 146 -74 244 l-24 37 32 -5 c25 -4 59 2 83 15 1 1 1 -17 1 -40z m145 23 c-7
-2 -12 -9 -12 -16 0 -7 -7 -21 -15 -32 -13 -18 -14 -17 -13 18 1 25 6 38 17
41 19 4 40 -5 23 -11z m-538 -363 c-12 -4 -28 -10 -36 -15 -10 -6 -11 -5 -1 7
6 8 14 31 18 52 l8 39 17 -39 c17 -38 16 -38 -6 -44z"/>
<path d="M1475 2010 c-4 -6 1 -32 10 -57 14 -37 19 -43 27 -29 15 26 6 90 -14
94 -9 2 -19 -2 -23 -8z"/>
<path d="M2025 2030 c-2 -3 0 -12 6 -20 11 -19 11 -91 0 -109 -5 -7 -14 -10
-20 -6 -7 4 -23 -1 -36 -9 -19 -13 -25 -25 -25 -55 0 -44 8 -55 27 -39 10 8
17 8 25 0 12 -12 -2 -57 -32 -102 -23 -33 -16 -47 20 -42 18 3 40 -3 56 -13
36 -23 40 -13 15 38 -20 41 -26 67 -16 67 2 0 16 -5 30 -12 19 -9 28 -9 37 0
7 7 15 12 19 12 6 0 5 -49 -3 -110 -3 -23 1 -26 42 -31 25 -3 63 -16 85 -28
21 -11 50 -21 63 -21 28 0 78 -25 110 -53 l22 -21 -2 46 c-2 25 -5 45 -8 43
-3 -2 -5 67 -4 153 l1 157 -6 -135 -7 -135 -2 162 c-2 126 2 173 14 209 8 25
13 48 10 51 -10 10 -156 8 -156 -2 0 -5 7 -28 15 -50 10 -28 14 -83 14 -180 0
-137 -11 -204 -35 -212 -27 -9 -85 226 -89 366 l-3 84 -82 1 c-45 1 -83 -1
-85 -4z m139 -19 c15 -1 17 -7 13 -33 -3 -18 -1 -55 4 -83 4 -27 10 -66 13
-85 3 -19 12 -64 21 -100 9 -36 18 -70 19 -77 1 -7 5 -16 9 -19 14 -14 7 -25
-10 -16 -10 5 -34 12 -53 16 l-35 6 0 63 0 62 -40 1 c-22 0 -47 2 -55 5 -12 3
-15 -6 -15 -41 0 -33 -4 -45 -15 -45 -8 0 -14 5 -13 12 2 7 -3 10 -11 7 -11
-4 -10 4 5 33 26 50 22 85 -11 93 -18 5 -24 12 -22 26 6 37 12 44 39 44 24 0
32 -8 53 -53 18 -38 31 -53 49 -55 24 -4 24 -4 18 71 -9 104 -23 133 -64 128
-7 -1 -13 9 -13 21 0 22 4 24 48 21 26 -1 55 -2 66 -2z m260 -11 c-20 -48 -27
-100 -29 -232 -2 -86 0 -148 6 -148 5 0 9 -17 9 -38 0 -21 6 -44 13 -51 6 -7
-6 -4 -28 8 -22 12 -49 21 -61 21 -31 0 -34 8 -17 48 18 44 21 338 4 371 -18
33 -13 36 49 36 50 0 59 -3 54 -15z m-320 -109 c19 -85 20 -114 4 -109 -7 3
-21 19 -31 36 -15 25 -17 42 -12 87 4 30 11 55 15 55 5 0 16 -31 24 -69z"/>
<path d="M2078 1896 c-5 -25 17 -105 26 -95 2 2 -2 31 -8 64 -11 52 -13 56
-18 31z"/>
<path d="M2460 2027 c0 -8 8 -32 18 -53 24 -54 26 -406 2 -444 -24 -38 -15
-70 19 -70 19 0 49 -17 91 -50 78 -62 107 -71 131 -41 41 50 52 197 24 306
-26 98 -68 123 -105 63 -34 -56 -24 -148 15 -148 17 0 26 -9 34 -31 25 -73 3
-157 -36 -133 -37 22 -47 64 -55 234 -7 150 -3 218 18 343 6 36 -6 51 -22 26
-7 -12 -81 -7 -116 6 -12 5 -18 2 -18 -8z m135 -45 c-4 -15 -9 -119 -11 -232
-3 -214 9 -304 42 -323 8 -4 12 -12 10 -16 -7 -11 46 -1 62 12 15 12 16 117 1
151 -7 14 -21 26 -33 28 -18 3 -21 11 -24 55 -3 60 10 93 38 93 24 0 39 -26
56 -99 16 -66 18 -197 4 -206 -5 -3 -10 -15 -10 -26 0 -11 -4 -18 -9 -15 -5 3
-11 -3 -14 -14 -8 -31 -36 -24 -98 25 -32 25 -74 52 -94 60 -19 9 -35 17 -35
19 0 1 8 18 18 37 14 29 17 62 17 209 0 157 -5 203 -29 260 -5 13 4 14 55 12
61 -4 61 -4 54 -30z"/>
<path d="M2562 1685 c0 -16 2 -22 5 -12 2 9 2 23 0 30 -3 6 -5 -1 -5 -18z"/>
<path d="M2721 1504 c0 -11 3 -14 6 -6 3 7 2 16 -1 19 -3 4 -6 -2 -5 -13z"/>
<path d="M2445 1979 c-4 -6 -5 -12 -2 -15 2 -3 7 2 10 11 7 17 1 20 -8 4z"/>
<path d="M2432 1910 c0 -14 2 -19 5 -12 2 6 2 18 0 25 -3 6 -5 1 -5 -13z"/>
<path d="M2484 1750 c0 -63 1 -89 3 -57 2 31 2 83 0 115 -2 31 -3 5 -3 -58z"/>
<path d="M2060 1701 c0 -16 42 -61 51 -56 5 4 9 19 9 34 0 24 -4 28 -30 29
-16 0 -30 -3 -30 -7z"/>
<path d="M2615 1560 c7 -59 34 -126 50 -123 15 4 18 112 3 130 -11 13 -13 13
-19 -4 -6 -15 -9 -13 -23 17 l-17 35 6 -55z m55 -80 c0 -5 -4 -10 -10 -10 -5
0 -10 5 -10 10 0 6 5 10 10 10 6 0 10 -4 10 -10z"/>
<path d="M1990 1483 c-64 -11 -418 -86 -530 -112 -214 -49 -380 -71 -380 -51
0 18 -31 39 -58 40 -13 0 -37 -7 -54 -16 -30 -15 -31 -15 -89 30 l-60 47 -14
-35 c-8 -20 -15 -41 -15 -47 0 -11 -57 -7 -92 6 -9 4 -15 0 -15 -9 0 -10 26
-26 71 -43 39 -15 73 -28 75 -30 3 -2 -6 -14 -18 -27 l-23 -24 31 -7 c17 -3
46 -17 66 -30 l35 -24 0 41 c0 23 3 39 6 36 3 -3 5 -25 6 -48 0 -34 3 -40 17
-35 9 4 30 12 46 17 17 6 35 17 41 24 9 11 28 11 100 3 125 -14 239 -7 556 37
192 26 283 30 294 13 8 -14 -63 -87 -83 -85 -11 1 -20 -14 -29 -48 -11 -44
-11 -53 6 -87 16 -31 18 -43 9 -68 l-11 -31 -235 0 -235 0 7 23 c33 110 43
162 33 174 -8 10 -86 13 -360 13 -192 0 -347 -4 -344 -8 2 -4 53 -9 112 -10
130 -3 153 -12 31 -12 -51 0 -87 -4 -87 -10 0 -6 50 -10 130 -10 80 0 130 -4
130 -10 0 -6 -64 -10 -172 -10 -94 0 -169 -2 -167 -4 2 -2 75 -6 162 -9 88 -3
161 -8 163 -10 3 -2 -87 -8 -198 -13 l-203 -9 200 -5 c210 -6 216 -7 70 -16
-280 -18 -291 -21 -80 -24 l200 -3 -120 -9 c-253 -18 -283 -27 -82 -24 107 2
183 0 175 -5 -7 -5 -56 -9 -108 -10 -52 0 -115 -4 -140 -9 -32 -6 -1 -8 103
-6 82 2 147 0 147 -5 0 -5 -19 -10 -42 -11 l-43 -1 38 -4 c72 -8 36 -18 -71
-20 -209 -4 -517 -15 -521 -19 -2 -2 139 -4 314 -4 175 0 316 -2 313 -5 -7 -8
-124 -13 -317 -14 -96 -1 -171 -4 -168 -8 4 -3 111 -6 239 -6 154 1 213 -2
173 -7 -33 -4 -118 -8 -190 -9 -71 -1 -137 -6 -145 -11 -10 -6 52 -10 185 -12
l200 -2 -185 -7 c-102 -3 -269 -7 -372 -8 -104 0 -188 -5 -188 -9 0 -5 165 -8
368 -6 233 1 315 -1 225 -5 -78 -4 -145 -10 -149 -14 -4 -4 48 -5 117 -2 68 2
135 1 149 -3 16 -4 -12 -9 -80 -13 l-105 -5 102 -2 c56 -1 105 -6 108 -12 3
-5 17 -10 30 -10 l24 0 -20 -35 c-20 -33 -20 -37 -5 -60 9 -14 27 -27 40 -31
28 -7 81 18 98 46 12 18 12 18 23 -3 37 -74 165 -34 152 48 -5 30 -4 30 34 30
28 0 39 -4 39 -15 0 -29 41 -81 75 -96 19 -8 49 -14 68 -14 41 0 130 43 156
76 24 30 26 30 41 -6 16 -38 49 -59 104 -66 69 -10 121 16 202 99 66 68 72 77
93 154 32 119 26 128 -91 123 -31 -1 -61 1 -67 4 -17 11 9 64 48 99 38 33 67
101 55 130 -3 9 4 26 16 39 67 71 122 176 118 226 -2 31 -9 40 -38 54 -33 17
-108 22 -170 11z m155 -32 c-2 -2 5 -11 16 -20 20 -16 20 -16 -5 -71 -19 -43
-25 -50 -26 -30 -1 30 -22 60 -42 60 -8 0 -19 5 -25 11 -8 8 -34 9 -80 5 -37
-4 -101 -9 -142 -12 -47 -4 -69 -9 -60 -15 10 -6 7 -8 -11 -8 -42 2 -175 -24
-182 -35 -5 -7 -8 -4 -8 7 0 11 9 21 20 24 11 3 20 10 20 15 0 5 4 6 10 3 11
-7 130 13 145 24 6 5 56 14 113 21 56 7 102 16 102 20 0 3 36 6 79 6 44 -1 78
-3 76 -5z m-1305 -59 c0 -5 16 -20 35 -34 l35 -24 -20 -22 c-21 -23 -55 -28
-78 -13 -12 7 -11 24 5 84 4 17 23 24 23 9z m1235 -22 c37 -14 41 -37 15 -86
-23 -45 -117 -140 -127 -130 -3 3 10 23 30 45 46 51 55 80 31 98 -34 25 -145
15 -484 -42 -173 -29 -500 -47 -500 -27 0 8 26 9 83 5 73 -5 135 0 404 33 29
4 51 10 48 14 -2 3 10 5 28 2 22 -2 28 -1 18 6 -9 7 0 9 30 9 24 -1 95 5 157
13 85 11 111 17 107 28 -4 10 12 12 77 10 75 -3 81 -5 84 -25 4 -23 -10 -31
-21 -13 -3 6 -11 10 -17 10 -7 0 -6 -5 2 -15 7 -8 10 -26 8 -40 -7 -33 -4 -32
21 9 25 40 27 72 5 80 -21 8 -117 7 -184 -1 l-55 -8 40 -7 c28 -5 20 -6 -27
-3 -37 2 -70 0 -72 -4 -3 -5 -18 -7 -33 -5 l-28 4 25 -10 c19 -7 12 -8 -30 -5
-41 4 -50 2 -35 -5 17 -9 17 -10 -6 -5 -15 3 -107 -9 -205 -25 -137 -23 -204
-30 -293 -28 -71 1 -89 3 -46 5 102 4 241 21 400 49 121 21 314 54 395 67 50
8 129 7 155 -3z m-517 -22 c-7 -4 -8 -8 -3 -9 6 -1 -12 -5 -40 -9 -27 -4 -68
-11 -90 -15 -30 -5 -36 -4 -25 4 8 6 27 11 41 11 14 0 33 6 42 13 10 6 33 12
53 13 21 0 30 -3 22 -8z m-517 -8 c24 -13 25 -51 1 -80 -17 -21 -19 -21 -55
-7 -49 21 -51 56 -4 80 40 20 35 19 58 7z m-278 -26 c15 -3 27 -10 27 -14 0
-5 -20 -2 -45 7 -42 14 -65 30 -27 19 9 -3 29 -8 45 -12z m177 -8 c0 -18 -16
-29 -30 -21 -13 8 -1 35 16 35 8 0 14 -6 14 -14z m400 -2 c0 -2 -7 -4 -15 -4
-8 0 -15 4 -15 10 0 5 7 7 15 4 8 -4 15 -8 15 -10z m35 6 c-3 -5 -12 -10 -18
-10 -7 0 -6 4 3 10 19 12 23 12 15 0z m-132 -17 c-7 -2 -21 -2 -30 0 -10 3 -4
5 12 5 17 0 24 -2 18 -5z m54 1 c-3 -3 -12 -4 -19 -1 -8 3 -5 6 6 6 11 1 17
-2 13 -5z m-389 -64 c-1 -52 -7 -60 -27 -36 -7 8 -24 17 -39 21 l-27 7 33 29
c48 43 61 39 60 -21z m73 8 c21 -17 39 -35 39 -40 0 -7 -59 -38 -72 -38 -2 0
-3 15 -3 33 0 17 -4 42 -8 55 -11 30 -3 28 44 -10z m1069 -97 c0 -24 -36 -89
-61 -111 -26 -24 -80 -108 -60 -96 5 3 11 -1 15 -9 4 -11 -2 -15 -26 -15 -25
0 -29 3 -20 12 7 7 12 20 12 30 0 10 4 18 9 18 5 0 0 19 -11 41 -24 50 -18
125 10 131 37 8 132 7 132 -1z m-624 -47 c-3 -9 -6 -25 -6 -37 -1 -19 -2 -20
-13 -6 -23 30 -52 37 -164 38 -118 0 -141 -8 -129 -47 7 -20 -17 -86 -34 -97
-8 -5 -7 -11 1 -21 9 -11 8 -14 -5 -14 -9 0 -20 -10 -25 -22 -21 -57 -32 -99
-27 -107 3 -5 -1 -14 -9 -21 -35 -29 -13 -59 43 -61 26 0 26 -1 5 -11 -25 -12
-93 -2 -93 13 0 6 11 50 25 98 14 48 27 97 29 108 3 11 14 52 26 92 11 39 19
75 16 80 -3 5 -21 12 -41 15 -82 16 -29 21 182 18 198 -2 224 -5 219 -18z
m-54 -38 c28 -13 28 -34 1 -56 -20 -15 -40 -20 -89 -20 -67 0 -90 -14 -59 -37
16 -11 9 -13 -60 -13 l-78 0 24 26 c17 19 24 37 24 67 l0 42 110 -1 c61 0 118
-4 127 -8z m23 -118 l1 -28 -79 0 c-67 0 -78 2 -68 14 9 11 9 16 -1 23 -8 5 9
10 47 14 94 9 100 8 100 -23z m695 -56 c0 -30 -28 -32 -532 -32 -279 0 -508 4
-508 8 0 30 28 32 532 32 279 0 508 -4 508 -8z m24 -29 c-3 -16 -10 -39 -15
-53 -5 -14 -10 -35 -12 -46 -1 -12 -10 -32 -19 -45 l-17 -24 0 28 c-2 58 -34
96 -100 118 -16 5 1 6 46 3 67 -6 73 -4 95 19 30 32 29 32 22 0z m-250 -26
c-41 -8 -89 -38 -121 -76 -21 -24 -23 -25 -23 -5 0 11 -13 33 -30 49 -35 33
-114 45 -175 25 -47 -16 -104 -66 -121 -106 l-14 -32 -135 0 c-76 0 -135 4
-135 9 0 5 35 9 78 9 82 0 102 9 102 45 0 18 6 21 58 23 45 1 61 6 74 23 10
12 16 25 13 29 -8 13 43 16 263 16 118 -1 187 -4 166 -9z m-450 -22 c-5 -13
-36 -15 -190 -15 -157 0 -184 2 -184 15 0 13 28 15 190 15 164 0 189 -2 184
-15z m218 5 c90 -25 104 -126 26 -196 -46 -42 -87 -56 -151 -52 -50 4 -64 9
-84 32 -60 70 3 189 114 215 52 12 53 12 95 1z m323 0 c49 -11 75 -43 75 -95
0 -78 -74 -145 -169 -153 -186 -16 -185 193 1 247 43 12 46 12 93 1z m-675
-54 c0 -2 -3 -11 -6 -20 -5 -13 -27 -16 -135 -16 -71 0 -129 4 -129 8 0 25 30
32 147 32 68 0 123 -2 123 -4z m8 -99 c21 -16 14 -54 -14 -76 -29 -23 -44 -27
-44 -10 0 5 5 7 10 4 6 -3 10 -1 10 5 0 6 3 9 8 7 4 -3 13 1 20 9 8 8 9 14 2
14 -6 0 -8 11 -6 26 4 21 3 24 -10 14 -11 -10 -14 -10 -14 -1 0 7 -5 9 -12 4
-7 -4 -20 -8 -28 -8 -8 0 -14 -6 -12 -12 1 -7 -5 -13 -14 -13 -25 0 -11 23 25
42 32 16 53 15 79 -5z m-164 -3 c20 -19 20 -18 0 -55 -10 -19 -21 -29 -30 -25
-8 3 -14 1 -14 -5 0 -9 -14 -9 -77 1 -2 0 -3 12 -3 27 0 59 84 97 124 57z m56
6 c0 -3 -6 -12 -12 -18 -10 -10 -6 -18 20 -38 37 -29 41 -44 11 -44 -13 0 -24
11 -33 33 -27 64 -27 73 -6 73 11 0 20 -3 20 -6z m78 -34 c9 -9 -25 -39 -36
-32 -5 3 -12 14 -14 24 -4 15 0 18 19 16 14 -1 27 -5 31 -8z"/>
<path d="M1998 1323 c7 -3 16 -2 19 1 4 3 -2 6 -13 5 -11 0 -14 -3 -6 -6z"/>
<path d="M1231 1028 c-5 -13 -7 -26 -5 -29 7 -12 65 4 74 21 12 22 4 30 -32
30 -21 0 -31 -6 -37 -22z"/>
<path d="M1541 768 c-1 -34 2 -38 23 -38 38 0 50 -25 32 -70 -4 -10 5 -21 26
-33 l33 -19 -22 24 c-31 33 -29 37 15 32 l37 -4 -34 13 c-28 11 -31 15 -17 20
10 4 27 8 39 8 13 1 8 4 -13 8 l-35 7 28 14 c15 7 27 18 27 23 0 5 -11 2 -25
-7 -36 -24 -52 -20 -27 7 34 36 26 45 -9 11 l-32 -29 7 30 6 30 -17 -30 -16
-30 -13 35 -12 35 -1 -37z"/>
<path d="M1501 747 c7 -15 16 -27 21 -27 14 0 9 16 -13 36 -21 19 -21 19 -8
-9z"/>
<path d="M1473 717 c24 -20 21 -30 -8 -25 -14 3 -25 1 -25 -3 0 -5 12 -9 26
-9 14 0 23 -4 19 -10 -3 -5 -15 -10 -25 -10 -10 0 -22 -4 -25 -10 -4 -6 7 -8
27 -4 l33 6 -25 -21 c-30 -24 -20 -28 15 -5 18 12 23 23 20 45 -2 17 1 29 8
29 18 0 -5 17 -33 24 -23 6 -23 6 -7 -7z"/>
<path d="M1543 707 c-31 -14 -31 -47 0 -47 25 0 47 17 47 36 0 18 -22 23 -47
11z"/>
<path d="M1512 635 c-36 -63 -36 -62 -9 -33 l26 28 4 -33 3 -32 8 33 c10 39
23 41 37 6 13 -35 21 -26 10 12 -6 25 -12 29 -40 29 -18 0 -36 -4 -39 -10z"/>
<path d="M1863 773 c8 -40 -3 -50 -24 -21 -10 12 -20 20 -24 17 -3 -4 5 -20
19 -35 14 -16 26 -23 26 -16 0 7 5 10 10 7 6 -4 10 8 10 29 0 19 -5 38 -12 42
-8 5 -9 -2 -5 -23z"/>
<path d="M1905 770 c-9 -18 -15 -33 -13 -35 2 -1 13 -8 26 -14 12 -7 20 -16
17 -22 -7 -10 16 -10 60 1 29 7 29 8 -10 9 l-40 1 33 21 c41 27 42 34 1 14
-38 -20 -48 -12 -23 17 l19 23 -26 -22 c-33 -30 -41 -29 -28 3 14 39 3 41 -16
4z"/>
<path d="M1788 723 c31 -22 28 -36 -8 -31 -16 3 -30 1 -30 -3 0 -4 15 -9 33
-11 l32 -4 -27 -12 c-16 -6 -28 -14 -28 -17 0 -3 12 -2 28 1 l27 7 -25 -28
-25 -29 34 24 c22 15 32 19 29 9 -20 -49 -19 -53 6 -24 l25 30 2 -35 1 -35 10
35 10 34 19 -24 19 -25 -7 34 -6 34 24 -16 c33 -23 46 -21 23 4 -12 14 -25 18
-39 14 -62 -20 -104 -1 -83 38 11 22 12 21 -32 35 -33 11 -34 11 -12 -5z"/>
<path d="M1850 695 c-14 -17 -5 -35 19 -35 20 0 54 33 44 43 -12 12 -50 7 -63
-8z"/>
<path d="M1935 670 c11 -5 31 -9 45 -9 23 0 23 1 5 9 -11 5 -31 9 -45 9 -23 0
-23 -1 -5 -9z"/>
<path d="M1060 647 c0 -4 -4 -5 -10 -2 -5 3 -10 1 -10 -5 0 -6 -5 -8 -12 -4
-6 4 -8 3 -4 -4 3 -5 0 -13 -6 -15 -10 -4 -10 -6 0 -6 6 -1 12 -6 12 -12 0 -5
-5 -7 -12 -3 -7 4 -8 3 -4 -5 4 -6 12 -9 17 -6 5 4 9 2 9 -4 0 -10 19 -9 38 2
6 5 17 5 24 1 7 -4 8 -3 4 4 -4 7 -1 12 6 12 9 0 9 3 -2 10 -14 9 -7 14 15 11
6 -1 2 5 -7 12 -10 8 -16 16 -13 18 2 3 -7 5 -20 5 -14 0 -25 -4 -25 -9z m28
-30 c4 -21 -25 -34 -40 -19 -8 8 -8 16 2 27 16 19 34 15 38 -8z"/>
<path d="M1060 620 c-8 -5 -11 -12 -7 -16 4 -4 13 -2 19 4 15 15 7 24 -12 12z"/>
<path d="M1171 597 c2 -1 13 -9 24 -17 19 -14 19 -14 6 3 -7 9 -18 17 -24 17
-6 0 -8 -1 -6 -3z"/>
<path d="M1225 619 c-10 -15 3 -25 16 -12 7 7 7 13 1 17 -6 3 -14 1 -17 -5z"/>
<path d="M279 1103 c-13 -16 -12 -17 4 -4 16 13 21 21 13 21 -2 0 -10 -8 -17
-17z"/>
<path d="M396 1027 c3 -10 9 -15 12 -12 3 3 0 11 -7 18 -10 9 -11 8 -5 -6z"/>
<path d="M538 973 c12 -2 30 -2 40 0 9 3 -1 5 -23 4 -22 0 -30 -2 -17 -4z"/>
<path d="M2139 801 c-14 -50 -22 -91 -19 -91 21 0 70 89 70 128 0 10 -6 26
-13 36 -11 15 -16 6 -38 -73z"/>
<path d="M2097 662 c-18 -90 -18 -89 -3 -52 l14 35 1 -32 c1 -22 6 -33 16 -33
18 0 17 -3 5 39 l-10 35 40 -39 c22 -21 42 -36 45 -34 2 3 -20 29 -49 58 l-53
53 -6 -30z"/>
<path d="M870 445 l-27 -39 -113 -2 c-106 -2 -114 -3 -138 -27 -23 -24 -24
-27 -8 -42 20 -20 20 -16 -1 -83 -10 -30 -30 -66 -45 -81 -34 -32 -34 -38 -2
-74 18 -22 28 -26 37 -18 9 6 45 8 100 4 l87 -6 0 -38 0 -39 40 16 c29 12 54
15 88 9 26 -3 65 -6 87 -5 109 5 181 4 195 -3 11 -5 21 4 39 34 l23 42 57 -6
c55 -6 58 -5 75 24 14 24 15 33 6 44 -10 12 -9 15 6 15 11 0 30 3 44 7 22 6
23 4 12 -9 -10 -13 -10 -26 -1 -62 11 -44 12 -45 32 -31 26 18 78 20 96 3 10
-11 15 -9 26 6 12 16 17 17 30 6 10 -8 33 -11 65 -8 31 3 51 1 53 -6 3 -8 8
-7 18 1 9 9 37 11 100 6 76 -5 92 -3 121 14 32 19 34 19 63 1 42 -25 127 -24
182 3 43 21 45 21 64 3 28 -25 135 -32 175 -11 52 27 86 72 91 120 3 25 1 47
-5 51 -6 4 -3 20 9 43 19 38 24 69 13 97 -5 14 -9 14 -36 0 -19 -10 -40 -13
-57 -8 -38 10 -102 4 -125 -12 -29 -20 -36 -18 -36 11 0 25 0 25 -31 10 -21
-11 -41 -14 -62 -9 -49 11 -99 5 -127 -15 -25 -18 -26 -17 -53 3 -25 18 -43
21 -130 21 -78 0 -105 -4 -113 -15 -9 -11 -17 -12 -37 -3 -34 16 -232 20 -250
5 -10 -8 -16 -9 -24 -1 -7 7 -39 10 -82 7 -61 -3 -71 -1 -71 13 0 9 -5 29 -10
45 l-10 29 -206 0 -206 0 -28 -40z m245 4 c4 -12 2 -26 -4 -32 -6 -6 -11 -24
-11 -41 0 -29 0 -29 20 -11 15 13 20 29 18 54 l-3 36 79 5 c69 4 79 3 88 -14
10 -18 -2 -35 -24 -36 -4 0 -41 -27 -82 -60 l-75 -61 24 -69 c13 -38 32 -83
41 -100 27 -45 11 -54 -106 -54 -93 -1 -100 0 -100 19 0 19 -1 19 -18 -3 -16
-21 -23 -23 -69 -16 -30 4 -65 2 -82 -4 -30 -10 -31 -10 -31 16 0 21 11 34 48
59 26 18 69 52 95 75 l48 43 -30 75 c-17 41 -31 76 -31 78 0 1 -7 2 -15 2 -18
0 -19 11 -2 33 9 13 33 17 107 20 52 1 98 4 102 5 4 1 10 -7 13 -19z m-270
-79 c8 -7 15 -23 15 -36 0 -19 -5 -24 -27 -24 -16 0 -35 -4 -43 -10 -12 -8
-12 -10 3 -16 10 -4 23 -2 30 5 17 17 27 13 27 -9 0 -34 -46 -73 -80 -68 -16
2 -26 0 -23 -5 6 -10 56 -5 87 8 17 7 17 6 6 -16 -38 -73 -99 -98 -192 -79
-43 10 -61 10 -72 1 -10 -9 -16 -8 -26 4 -10 12 -7 20 14 45 30 37 59 126 54
172 l-3 33 63 2 c35 1 67 5 70 8 10 10 80 -1 97 -15z m547 7 c53 5 73 2 93
-11 36 -23 34 -75 -3 -117 -24 -27 -37 -33 -84 -37 -50 -4 -57 -7 -61 -28 -2
-14 -1 -27 4 -30 4 -2 6 -11 3 -18 -4 -9 -26 -13 -75 -12 -59 0 -69 3 -69 18
0 10 4 18 9 18 21 0 77 168 61 184 -15 15 19 47 39 37 9 -5 46 -7 83 -4z m357
-11 c12 -11 21 -30 21 -44 0 -27 -35 -72 -55 -72 -8 0 -10 -10 -7 -26 3 -19 7
-22 13 -13 10 17 25 3 31 -26 7 -33 50 110 46 152 l-3 38 45 1 c25 0 71 4 102
9 53 7 58 6 83 -19 33 -33 28 -49 -16 -58 -73 -15 -94 -21 -107 -31 -7 -5 -15
-7 -18 -5 -9 10 24 78 41 84 19 8 48 -15 41 -31 -3 -10 3 -10 30 -2 37 11 41
19 20 36 -15 13 -123 11 -118 -2 1 -4 -5 -21 -13 -38 -18 -33 -12 -69 11 -69
8 0 14 4 14 9 0 14 31 23 44 13 17 -14 56 -21 56 -11 0 5 -9 9 -19 9 -11 0
-23 5 -27 12 -5 8 -2 9 10 5 10 -4 26 -2 37 3 30 16 25 -25 -7 -57 -20 -20
-32 -24 -57 -19 -26 5 -29 4 -14 -5 36 -21 152 20 128 44 -33 33 15 110 78
127 27 7 48 7 70 -1 24 -8 39 -9 57 0 22 10 24 8 24 -15 0 -14 -11 -36 -25
-50 -24 -24 -24 -25 -5 -44 22 -22 25 -37 10 -60 -8 -12 -10 -10 -10 10 0 37
-9 45 -72 73 -60 27 -66 35 -46 55 19 19 37 14 50 -12 6 -14 17 -27 25 -30 14
-6 63 35 63 51 0 4 -33 9 -74 11 -67 2 -77 0 -105 -24 -21 -17 -31 -35 -31
-54 0 -33 15 -48 58 -56 44 -9 67 -36 53 -63 -23 -43 -99 -33 -88 11 3 10 1
15 -5 12 -5 -3 -7 -17 -4 -30 7 -27 -2 -30 -30 -10 -18 14 -18 16 -2 32 9 10
25 18 35 19 10 0 19 5 20 10 3 13 -45 9 -63 -6 -40 -33 4 -79 77 -79 39 0 49
4 63 25 25 39 12 63 -50 90 -45 20 -54 28 -51 47 4 42 26 47 60 16 17 -16 43
-32 58 -35 16 -3 33 -10 37 -17 13 -15 24 -78 13 -72 -5 3 -15 -2 -22 -12 -13
-15 -12 -16 4 -3 11 9 17 10 17 2 0 -16 -57 -49 -99 -56 -47 -8 -112 14 -126
41 -11 22 -11 22 -39 -6 -35 -36 -88 -45 -160 -29 -44 10 -58 10 -71 -1 -11
-9 -15 -10 -15 0 0 6 9 14 19 17 38 10 97 233 62 233 -8 0 -10 -8 -6 -20 9
-27 -13 -120 -39 -167 -36 -64 -118 -91 -157 -52 -17 17 -19 28 -14 60 4 23 3
39 -3 39 -12 0 -23 -51 -16 -77 6 -22 -20 -51 -31 -33 -8 13 -61 13 -86 0 -16
-9 -19 -7 -19 13 0 14 7 30 15 37 25 20 57 121 52 162 -3 20 -1 40 4 45 4 4
53 8 107 8 84 0 103 -3 121 -19z m718 12 c27 -10 38 -10 54 1 12 7 23 10 25 8
11 -11 -10 -57 -36 -81 -27 -24 -31 -24 -66 -12 -44 15 -64 40 -47 57 15 15
41 5 50 -18 10 -27 23 -32 49 -21 22 10 39 36 30 45 -2 2 -39 5 -81 6 -73 2
-78 1 -102 -27 -17 -21 -24 -38 -21 -58 5 -32 -7 -38 -17 -8 -6 20 14 69 39
89 14 11 58 28 80 30 5 1 25 -4 43 -11z m-1549 -62 c23 -56 23 -59 5 -78 -10
-11 -25 -24 -34 -29 -14 -7 -16 -2 -15 31 0 22 5 40 9 40 9 0 2 55 -10 87 -4
11 -2 14 8 11 8 -2 24 -30 37 -62z m1097 34 c3 -5 4 -10 1 -10 -2 0 -11 -3
-19 -6 -8 -3 -17 2 -20 10 -7 18 27 23 38 6z m245 -11 c0 -16 -30 -22 -45 -9
-23 19 -18 27 15 22 17 -2 30 -8 30 -13z m244 9 c20 4 20 3 5 -13 -14 -14 -21
-15 -38 -6 -11 7 -21 16 -21 22 0 6 6 7 16 1 9 -5 26 -7 38 -4z m-127 -13 c-7
-17 32 -47 85 -64 21 -7 40 -21 43 -32 4 -11 9 -18 12 -15 3 3 -2 17 -12 32
-12 19 -13 25 -3 22 7 -3 17 -17 23 -32 18 -51 -45 -117 -124 -130 -45 -7
-109 11 -124 35 -15 24 0 67 30 82 52 28 152 -21 127 -61 -18 -28 -62 -39 -81
-20 -15 16 -15 19 1 43 14 22 15 26 2 31 -22 8 -76 -24 -76 -46 0 -10 4 -22
10 -25 5 -3 7 0 4 8 -3 9 4 22 18 31 30 21 41 20 29 -2 -6 -11 -9 -29 -8 -40
1 -19 7 -22 41 -22 45 0 76 22 76 55 0 28 -20 45 -74 65 -48 18 -55 36 -26 73
24 30 35 35 27 12z m-1143 -81 c-37 -103 -44 -107 -69 -36 l-16 47 42 38 c31
27 45 34 54 27 10 -9 8 -24 -11 -76z"/>
<path d="M905 441 c-3 -5 6 -26 20 -47 14 -20 25 -41 25 -47 0 -6 3 -8 6 -4 4
3 -5 26 -19 51 -22 39 -23 45 -8 49 14 4 14 5 -1 6 -9 0 -19 -3 -23 -8z"/>
<path d="M1070 439 c0 -5 6 -7 13 -3 10 6 10 4 0 -7 -23 -23 -14 -109 11 -109
6 0 11 -17 12 -37 2 -55 7 -83 16 -83 4 0 8 -9 8 -20 0 -11 9 -36 20 -55 11
-20 17 -42 13 -48 -4 -8 -1 -8 9 1 15 12 14 17 -7 55 -13 23 -31 68 -41 100
l-18 59 49 44 c28 24 69 56 92 71 47 31 54 43 23 43 -11 0 -19 -5 -17 -11 1
-6 -13 -19 -31 -29 -18 -10 -33 -21 -32 -25 1 -3 -11 -16 -26 -27 l-27 -21 12
21 c18 34 13 34 -19 0 -25 -28 -31 -31 -40 -18 -13 19 -13 67 0 75 15 10 12
35 -5 35 -8 0 -15 -5 -15 -11z m65 -109 c-3 -5 -11 -10 -16 -10 -6 0 -7 5 -4
10 3 6 11 10 16 10 6 0 7 -4 4 -10z"/>
<path d="M1146 442 c-2 -4 -1 -14 5 -22 7 -12 9 -10 9 8 0 23 -5 28 -14 14z"/>
<path d="M988 433 c12 -2 32 -2 45 0 12 2 2 4 -23 4 -25 0 -35 -2 -22 -4z"/>
<path d="M1193 433 c9 -2 25 -2 35 0 9 3 1 5 -18 5 -19 0 -27 -2 -17 -5z"/>
<path d="M966 315 c21 -75 31 -61 -153 -211 l-26 -21 64 0 c60 0 61 0 17 6
l-48 6 59 47 58 46 -12 -35 c-13 -38 1 -91 19 -72 6 6 6 13 -2 21 -21 21 -13
55 19 82 17 14 26 26 21 26 -7 0 -7 10 0 28 8 21 7 35 -6 62 -9 19 -14 26 -10
15z"/>
<path d="M1008 162 c2 -30 0 -52 -7 -56 -6 -4 -11 -15 -11 -24 0 -13 2 -13 15
4 16 21 20 91 6 112 -5 8 -6 -7 -3 -36z"/>
<path d="M961 166 c-28 -30 -22 -59 11 -54 25 3 36 36 21 63 -8 13 -12 12 -32
-9z"/>
<path d="M1047 83 c18 -2 50 -2 70 0 21 2 7 4 -32 4 -38 0 -55 -2 -38 -4z"/>
<path d="M632 320 c1 -43 1 -44 5 -7 4 35 6 37 38 37 l34 0 -15 -35 c-8 -20
-12 -40 -9 -44 2 -5 -2 -23 -11 -40 -9 -17 -17 -47 -18 -66 -3 -34 -2 -35 33
-35 25 0 40 6 49 20 8 13 23 20 41 20 17 0 33 5 36 10 4 6 -9 10 -32 10 -30 0
-40 -5 -48 -22 -12 -28 -52 -36 -61 -14 -9 25 5 86 22 93 8 3 30 -3 49 -12 31
-18 35 -18 59 -2 14 10 26 21 26 25 0 4 -20 13 -44 21 -33 9 -49 10 -65 1 -18
-9 -21 -8 -21 9 0 29 43 76 63 68 10 -4 17 -15 17 -26 0 -17 3 -18 35 -8 38
11 42 18 21 36 -9 8 -47 11 -110 9 l-96 -3 2 -45z m198 30 c0 -4 -7 -11 -16
-14 -22 -8 -24 -8 -24 7 0 7 9 13 20 14 11 1 20 -2 20 -7z m-45 -90 c4 -6 11
-8 16 -5 5 4 9 1 9 -6 0 -8 -12 -9 -37 -4 -50 9 -66 25 -26 25 18 0 35 -5 38
-10z"/>
<path d="M733 328 c-24 -31 -23 -36 4 -29 16 4 29 15 31 24 4 20 -21 23 -35 5z"/>
<path d="M616 243 c-4 -18 -18 -48 -32 -68 -28 -42 -29 -46 -10 -39 17 7 60
108 53 126 -2 7 -7 -1 -11 -19z"/>
<path d="M692 215 c-19 -40 -15 -57 11 -53 18 2 22 9 22 37 0 42 -17 50 -33
16z"/>
<path d="M770 150 c-9 -6 -10 -10 -3 -10 6 0 15 5 18 10 8 12 4 12 -15 0z"/>
<path d="M1290 365 c-1 0 -2 -22 -4 -50 -2 -27 -1 -44 1 -37 3 6 8 10 12 8 4
-3 5 11 3 30 l-4 34 54 -1 c30 -1 64 2 76 5 30 10 60 -9 65 -41 l4 -28 2 27
c2 44 -31 58 -127 55 -45 -1 -82 -2 -82 -2z"/>
<path d="M1431 322 c-2 -51 -66 -105 -86 -72 -3 5 1 26 10 46 8 20 13 39 10
42 -9 9 -37 -70 -32 -90 3 -10 1 -21 -4 -24 -5 -3 -9 -11 -9 -17 0 -7 5 -4 11
6 7 13 23 17 63 17 45 0 56 4 77 28 l24 27 -26 -22 c-14 -13 -33 -23 -42 -23
-16 0 -16 2 -2 31 9 17 14 42 12 57 -4 24 -4 23 -6 -6z"/>
<path d="M1382 327 c-6 -6 -13 -24 -17 -40 -5 -20 -4 -27 8 -27 19 0 34 18 42
53 5 20 4 27 -8 27 -8 0 -19 -6 -25 -13z"/>
<path d="M1266 233 c-4 -18 -17 -47 -30 -65 l-22 -33 58 0 c56 0 57 1 51 25
-8 33 -13 38 -13 12 0 -18 -6 -22 -35 -22 l-35 0 20 41 c12 22 19 48 17 57 -2
10 -6 5 -11 -15z"/>
<path d="M1534 333 c-1 -53 -20 -114 -49 -157 -29 -43 -30 -47 -11 -40 21 8
76 152 76 201 0 12 8 24 18 26 11 3 9 5 -8 6 -23 1 -26 -3 -26 -36z"/>
<path d="M1603 363 c12 -3 16 -10 12 -21 -5 -14 -4 -14 12 -1 11 9 36 15 63
15 37 -1 46 -5 57 -26 9 -17 13 -20 13 -8 0 35 -28 48 -103 47 -40 -1 -64 -3
-54 -6z"/>
<path d="M1848 353 c6 -2 18 -2 25 0 6 3 1 5 -13 5 -14 0 -19 -2 -12 -5z"/>
<path d="M1680 327 c0 -28 -35 -62 -73 -71 -29 -7 -47 -38 -47 -81 0 -13 -6
-26 -12 -28 -13 -5 -6 -7 19 -7 4 0 6 15 5 33 -3 36 19 74 36 63 7 -4 12 -27
12 -51 0 -24 4 -46 8 -49 4 -2 5 22 2 54 -5 55 -4 60 18 69 16 8 21 8 17 0 -4
-5 0 -18 8 -27 16 -17 17 -21 17 -47 0 -8 7 -15 15 -15 10 0 12 -6 8 -18 -6
-15 -5 -15 10 -3 9 7 17 23 17 34 0 16 -3 18 -12 9 -18 -18 -28 -15 -28 8 0
10 -6 25 -14 32 -12 11 -11 15 8 25 16 10 17 12 4 13 -13 0 -15 7 -11 40 3 22
3 40 -1 40 -3 0 -6 -10 -6 -23z"/>
<path d="M2154 339 c-3 -6 0 -15 7 -20 23 -14 30 -10 19 11 -12 23 -16 24 -26
9z"/>
<path d="M1625 309 c-9 -17 -15 -33 -12 -35 7 -8 57 37 57 52 0 25 -29 15 -45
-17z"/>
<path d="M1910 321 c-14 -27 -13 -29 15 -23 16 3 25 11 25 23 0 25 -26 24 -40
0z"/>
<path d="M1729 283 c-13 -16 -12 -17 4 -4 16 13 21 21 13 21 -2 0 -10 -8 -17
-17z"/>
<path d="M1585 281 c-3 -5 -1 -12 5 -16 5 -3 10 1 10 9 0 18 -6 21 -15 7z"/>
<path d="M1855 230 c-4 -12 -4 -24 -1 -27 3 -4 6 1 6 10 0 9 5 19 12 23 8 5 9
2 5 -10 -20 -51 -20 -66 1 -66 24 0 34 13 36 44 1 15 7 20 24 19 12 -2 22 2
22 7 0 5 8 7 18 3 9 -3 14 -3 10 2 -12 13 -79 15 -71 2 4 -7 0 -8 -10 -4 -10
4 -23 10 -31 13 -9 3 -17 -3 -21 -16z"/>
<path d="M2122 196 c-12 -12 -19 -25 -16 -29 12 -12 41 -8 54 9 11 12 11 17
-1 28 -12 12 -18 10 -37 -8z"/>
<path d="M1844 168 c3 -25 1 -27 -23 -23 l-26 5 24 -10 c27 -12 113 -11 106 1
-8 12 23 31 46 27 12 -2 24 3 26 10 3 8 -7 12 -30 12 -26 0 -39 -6 -51 -26
-22 -32 -57 -29 -68 6 -7 25 -8 24 -4 -2z"/>
<path d="M2404 339 c-3 -6 0 -15 7 -20 23 -14 30 -10 19 11 -12 23 -16 24 -26
9z"/>
<path d="M2378 200 c-27 -25 -22 -42 10 -38 19 2 28 9 30 24 4 28 -18 36 -40
14z"/>
</g>
</svg>
